<?xml version="1.0" standalone="no"?>
<!DOCTYPE svg PUBLIC "-//W3C//DTD SVG 20010904//EN"
 "http://www.w3.org/TR/2001/REC-SVG-20010904/DTD/svg10.dtd">
<svg version="1.0" xmlns="http://www.w3.org/2000/svg"
 width="700.000000pt" height="700.000000pt" viewBox="0 0 700.000000 700.000000"
 preserveAspectRatio="xMidYMid meet">
<metadata>
Created by potrace 1.14, written by Peter Selinger 2001-2017
</metadata>
<g transform="translate(0.000000,700.000000) scale(0.100000,-0.100000)"
fill="#000000" stroke="none">
<path d="M1919 6985 c-255 -61 -444 -289 -454 -545 -11 -301 159 -535 440
-604 33 -8 108 -17 167 -20 150 -8 238 -30 360 -91 185 -93 338 -261 411 -450
42 -110 49 -146 62 -329 37 -501 644 -732 1001 -381 110 108 169 232 179 375
13 181 23 234 63 338 69 179 232 357 412 447 56 28 190 77 190 70 0 -3 11 0
24 4 13 5 72 13 132 16 60 4 118 9 129 11 11 2 36 7 55 10 19 3 73 24 120 46
144 69 247 191 295 353 29 94 27 260 -4 353 -38 117 -106 213 -203 289 -111
85 -232 123 -380 118 -300 -8 -547 -249 -564 -550 -16 -271 -89 -449 -253
-615 -423 -426 -1133 -294 -1383 257 -45 100 -64 185 -73 323 -10 179 -60 295
-175 411 -60 61 -92 84 -160 116 -47 23 -101 44 -120 48 -64 14 -214 13 -271
0z"/>
<path d="M495 5520 c-276 -49 -482 -282 -490 -555 -6 -175 49 -319 166 -436
114 -115 248 -171 434 -183 143 -9 242 -34 345 -87 327 -168 514 -518 466
-874 -41 -302 -243 -562 -526 -678 -93 -38 -171 -55 -285 -63 -198 -13 -317
-63 -435 -184 -69 -70 -106 -130 -142 -232 -33 -92 -32 -266 1 -358 62 -174
180 -300 339 -365 79 -32 101 -36 207 -41 173 -6 337 57 444 172 105 111 155
244 165 429 6 119 18 186 53 280 69 186 222 361 393 452 56 30 133 63 160 68
8 2 33 8 55 14 22 6 72 13 110 16 164 13 189 17 233 32 101 34 191 90 254 158
63 67 129 187 144 260 47 221 -9 419 -161 570 -112 111 -235 163 -405 171 -47
2 -102 6 -122 10 -21 3 -39 5 -40 5 -7 -3 -167 58 -208 79 -197 100 -349 277
-419 486 -37 109 -40 125 -46 244 -7 124 -19 187 -49 260 -60 149 -172 259
-319 315 -99 37 -229 51 -322 35z"/>
<path d="M6348 5525 c-1 -1 -24 -6 -50 -9 -151 -20 -317 -130 -393 -261 -60
-102 -78 -172 -90 -360 -18 -264 -140 -490 -347 -643 -139 -103 -296 -156
-490 -166 -180 -10 -334 -83 -440 -208 -197 -231 -186 -579 24 -795 26 -26 53
-53 60 -58 29 -24 119 -75 131 -75 7 0 17 -4 22 -8 21 -18 102 -34 218 -43
229 -17 396 -86 546 -224 168 -156 262 -360 276 -595 10 -172 32 -254 96 -356
165 -260 532 -341 804 -177 112 67 209 187 250 308 25 75 27 83 31 175 4 108
-14 189 -67 292 -95 181 -272 296 -481 312 -185 15 -280 37 -388 90 -491 243
-636 856 -304 1287 155 202 380 316 655 333 109 7 165 19 242 55 166 76 290
230 332 411 17 77 13 223 -8 290 -81 251 -290 414 -547 425 -43 2 -80 2 -82 0z"/>
<path d="M3397 2593 c-211 -35 -378 -171 -455 -369 -23 -57 -30 -92 -37 -184
-13 -158 -16 -178 -45 -269 -89 -273 -321 -489 -604 -561 -44 -11 -127 -23
-185 -26 -131 -7 -206 -24 -296 -69 -136 -66 -231 -178 -282 -330 -36 -109
-38 -266 -5 -367 145 -439 689 -559 1000 -220 84 92 137 213 147 333 12 152
16 186 32 249 32 133 153 339 244 415 104 87 184 136 278 172 388 146 820 -5
1036 -362 73 -121 110 -243 120 -401 4 -50 8 -98 9 -105 43 -239 222 -430 453
-483 89 -20 233 -14 313 13 257 89 416 320 406 591 -9 218 -118 396 -302 492
-89 46 -172 66 -310 72 -146 7 -255 38 -399 113 -46 24 -150 108 -197 159
-150 162 -217 333 -232 589 -21 357 -337 608 -689 548z"/>
</g>
</svg>
