<svg fill="none" height="56" viewBox="0 0 56 56" width="56" xmlns="http://www.w3.org/2000/svg"><g stroke="#000" stroke-width="2"><g stroke-linecap="round"><path d="m1 25c5 0 7 3 13 3s8-3 14-3 8 3 14 3 8-3 13-3"/><path d="m1 19c5 0 7 3 13 3s8-3 14-3 8 3 14 3 8-3 13-3"/><path d="m1 13c5 0 7 3 13 3s8-3 14-3 8 3 14 3 8-3 13-3"/><path d="m1 7c5 0 7 3 13 3s8-3 14-3 8 3 14 3 8-3 13-3"/><path d="m1 1c5 0 7 3 13 3s8-3 14-3 8 3 14 3 8-3 13-3"/></g><path d="m44 39c0 8.8366-7.1634 16-16 16s-16-7.1634-16-16 7.1634-16 16-16c4.0578 0 7.7628 1.5105 10.5833 4 3.3217 2.9318 5.4167 7.2212 5.4167 12z" fill="#fff"/><path d="m22 40 4 4 8-10" stroke-linecap="round" stroke-linejoin="round"/></g></svg>