<svg fill="none" height="56" viewBox="0 0 56 56" width="56" xmlns="http://www.w3.org/2000/svg"><g stroke="#000" stroke-width="2"><path d="m1 25c5 0 7 3 13 3s8-3 14-3 8 3 14 3 8-3 13-3" stroke-linecap="round"/><path d="m1 19c5 0 7 3 13 3s8-3 14-3 8 3 14 3 8-3 13-3" stroke-linecap="round"/><path d="m1 13c5 0 7 3 13 3s8-3 14-3 8 3 14 3 8-3 13-3" stroke-linecap="round"/><path d="m1 7c5 0 7 3 13 3s8-3 14-3 8 3 14 3 8-3 13-3" stroke-linecap="round"/><path d="m1 1c5 0 7 3 13 3s8-3 14-3 8 3 14 3 8-3 13-3" stroke-linecap="round"/><path d="m44 39c0 8.8366-7.1634 16-16 16s-16-7.1634-16-16 7.1634-16 16-16c4.0578 0 7.7628 1.5105 10.5833 4 3.3217 2.9318 5.4167 7.2212 5.4167 12z" fill="#fff"/></g><path d="m27 40v-6c0-.549.451-1 1-1s1 .451 1 1v6c0 .549-.451 1-1 1s-1-.451-1-1z" fill="#000"/><path d="m28 45c.5523 0 1-.4477 1-1s-.4477-1-1-1-1 .4477-1 1 .4477 1 1 1z" fill="#000"/></svg>