<svg width="64" height="64" viewBox="0 0 64 64" fill="none" xmlns="http://www.w3.org/2000/svg">
<path d="M13 5H9C6.79086 5 5 6.79086 5 9V13" stroke="black" stroke-width="2" stroke-linecap="round" stroke-linejoin="round"/>
<path d="M51 5H55C57.2091 5 59 6.79086 59 9V13" stroke="black" stroke-width="2" stroke-linecap="round" stroke-linejoin="round"/>
<path d="M5 45V49C5 51.2091 6.79086 53 9 53H13" stroke="black" stroke-width="2" stroke-linecap="round" stroke-linejoin="round"/>
<path d="M59 45V49C59 51.2091 57.2091 53 55 53H51" stroke="black" stroke-width="2" stroke-linecap="round" stroke-linejoin="round"/>
<rect x="8" y="9" width="5" height="40" rx="1" fill="black"/>
<rect x="16" y="9" width="5" height="36" rx="1" fill="black"/>
<rect x="24" y="9" width="3" height="36" rx="1" fill="black"/>
<rect x="41" y="9" width="3" height="36" rx="1" fill="black"/>
<rect x="47" y="9" width="9" height="40" rx="1" fill="black"/>
<rect x="30" y="9" width="8" height="36" rx="1" fill="black"/>
<path d="M36 29C27.163 29 20 36.163 20 45H52C52 36.163 44.837 29 36 29Z" fill="black" stroke="black" stroke-width="2"/>
<path d="M48 43C48 51.8366 40.8366 59 32 59C23.1634 59 16 51.8366 16 43C16 34.1634 23.1634 27 32 27C36.0578 27 39.7628 28.5105 42.5833 31C45.905 33.9318 48 38.2212 48 43Z" fill="white" stroke="black" stroke-width="2"/>
<path d="M19.9955 46.2289C19.9955 45.9889 20.1054 45.7819 20.3154 45.6089C20.5254 45.4359 20.7855 45.3499 21.0955 45.3499C21.3955 45.3499 21.6555 45.4359 21.8755 45.6089C22.0855 45.7819 22.1954 45.9889 22.1954 46.2289C22.1954 47.1079 22.6355 47.5469 23.5155 47.5469C24.3855 47.5469 24.8254 47.1079 24.8254 46.2289C24.8254 45.6429 24.0255 44.7639 22.4155 43.5919C20.8055 42.4199 19.9955 41.2479 19.9955 40.0759C19.9955 38.0259 21.1655 36.9999 23.5155 36.9999C25.8555 36.9999 27.0255 38.0259 27.0255 40.0759C27.0255 40.3169 26.9154 40.523 26.7054 40.696C26.4954 40.869 26.2355 40.9549 25.9255 40.9549C25.6255 40.9549 25.3655 40.869 25.1455 40.696C24.9355 40.523 24.8254 40.3169 24.8254 40.0759C24.8254 39.1979 24.3855 38.7579 23.5155 38.7579C22.6355 38.7579 22.1954 39.1979 22.1954 40.0759C22.1954 40.6619 22.9955 41.541 24.6055 42.713C26.2255 43.885 27.0255 45.0569 27.0255 46.2289C27.0255 48.2799 25.8555 49.3049 23.5155 49.3049C21.1655 49.3049 19.9955 48.2799 19.9955 46.2289Z" fill="black"/>
<path d="M30.1055 48.4259C30.1055 48.6659 29.9955 48.8729 29.7855 49.0459C29.5655 49.2189 29.3055 49.3049 29.0055 49.3049C28.6955 49.3049 28.4355 49.2189 28.2255 49.0459C28.0155 48.8729 27.9055 48.6659 27.9055 48.4259V37.8789C27.9055 37.6389 28.0155 37.4319 28.2255 37.2599C28.4355 37.0869 28.6955 36.9999 29.0055 36.9999C29.3055 36.9999 29.5655 37.0869 29.7855 37.2599C29.9955 37.4319 30.1055 37.6389 30.1055 37.8789V42.2739H31.4255C32.2955 42.2739 32.7355 41.8339 32.7355 40.9549V37.8789C32.7355 37.6389 32.8454 37.4319 33.0654 37.2599C33.2754 37.0869 33.5354 36.9999 33.8354 36.9999C34.1454 36.9999 34.4055 37.0869 34.6155 37.2599C34.8255 37.4319 34.9354 37.6389 34.9354 37.8789V40.9549C34.9354 41.9099 34.6855 42.643 34.1755 43.153C34.6855 43.662 34.9354 44.3949 34.9354 45.3499V48.4259C34.9354 48.6659 34.8255 48.8729 34.6155 49.0459C34.4055 49.2189 34.1454 49.3049 33.8354 49.3049C33.5354 49.3049 33.2754 49.2189 33.0654 49.0459C32.8454 48.8729 32.7355 48.6659 32.7355 48.4259V45.3499C32.7355 44.4709 32.2955 44.032 31.4255 44.032H30.1055V48.4259Z" fill="black"/>
<path d="M35.8154 37.8789C35.8154 37.6389 35.9255 37.4319 36.1355 37.2599C36.3555 37.0869 36.6055 36.9999 36.9155 36.9999C37.2155 36.9999 37.4754 37.0869 37.6954 37.2599C37.9054 37.4319 38.0155 37.6389 38.0155 37.8789V46.2289C38.0155 47.1079 38.4554 47.5469 39.3354 47.5469C40.2054 47.5469 40.6455 47.1079 40.6455 46.2289V37.8789C40.6455 37.6389 40.7555 37.4319 40.9755 37.2599C41.1855 37.0869 41.4455 36.9999 41.7455 36.9999C42.0555 36.9999 42.3155 37.0869 42.5255 37.2599C42.7355 37.4319 42.8455 37.6389 42.8455 37.8789V46.2289C42.8455 48.2799 41.6754 49.3049 39.3354 49.3049C36.9854 49.3049 35.8154 48.2799 35.8154 46.2289V37.8789Z" fill="black"/>
</svg>
