<svg clip-rule="evenodd" fill-rule="evenodd" height="56" viewBox="0 0 56 56" width="56" xmlns="http://www.w3.org/2000/svg"><g stroke="#000" stroke-width="2"><path d="m55 3v34c0 1.104-.896 2-2 2h-50c-1.104 0-2-.896-2-2v-34c0-1.104.896-2 2-2h50c1.104 0 2 .896 2 2z" fill="#fff"/><path d="m36 51v4h-16v-16h16v8" fill="none" stroke-linecap="round"/><path d="m12 55h32" fill="none" stroke-linecap="round"/></g><path d="m20 39h16v6h-16z"/><g fill-rule="nonzero" transform="translate(-1333.84 -436.92)"><path d="m1355.03 460.996c0 2.051-1.17 3.076-3.51 3.076h-2.42c-.31 0-.57-.086-.78-.259s-.32-.38-.32-.62v-10.547c0-.24.11-.447.32-.619.21-.173.47-.26.78-.26h2.42c2.34 0 3.51 1.026 3.51 3.076v.879c0 .955-.25 1.688-.76 2.198.51.509.76 1.242.76 2.197zm-2.2-6.153c0-.878-.44-1.318-1.31-1.318h-1.32v3.516h1.32c.87 0 1.31-.44 1.31-1.319zm-1.31 7.471c.87 0 1.31-.439 1.31-1.318v-.879c0-.879-.44-1.318-1.31-1.318h-1.32v3.515z"/><path d="m1358.11 463.193c0 .24-.11.447-.32.62-.22.173-.48.259-.78.259-.31 0-.57-.086-.78-.259s-.32-.38-.32-.62v-8.35c0-2.05 1.17-3.076 3.52-3.076 1.03 0 1.83.2 2.41.598.58-.398 1.39-.598 2.42-.598 2.34 0 3.52 1.026 3.52 3.076v8.35c0 .24-.11.447-.33.62-.21.173-.47.259-.77.259-.31 0-.57-.086-.78-.259-.22-.173-.32-.38-.32-.62v-8.35c0-.878-.44-1.318-1.32-1.318s-1.32.44-1.32 1.318v8.35c0 .24-.11.447-.32.62s-.47.259-.78.259c-.3 0-.56-.086-.77-.259-.22-.173-.33-.38-.33-.62v-8.35c0-.878-.44-1.318-1.31-1.318-.88 0-1.32.44-1.32 1.318z"/><path d="m1368.65 460.996c0-.24.11-.447.33-.62.21-.173.47-.259.77-.259.31 0 .57.086.78.259s.32.38.32.62c0 .879.44 1.318 1.32 1.318s1.32-.439 1.32-1.318c0-.586-.81-1.465-2.42-2.637s-2.42-2.344-2.42-3.516c0-2.05 1.18-3.076 3.52-3.076s3.51 1.026 3.51 3.076c0 .241-.1.447-.31.62-.22.173-.48.259-.78.259-.31 0-.57-.086-.78-.259s-.32-.379-.32-.62c0-.878-.44-1.318-1.32-1.318s-1.32.44-1.32 1.318c0 .586.81 1.465 2.42 2.637s2.41 2.344 2.41 3.516c0 2.051-1.17 3.076-3.51 3.076s-3.52-1.025-3.52-3.076z"/></g></svg>