<svg fill="none" height="56" viewBox="0 0 56 56" width="56" xmlns="http://www.w3.org/2000/svg" xmlns:xlink="http://www.w3.org/1999/xlink"><clipPath id="a"><path d="m0 0h56v56h-56z"/></clipPath><g clip-path="url(#a)" fill="#000"><path d="m55.1746 51.0569h-2.4689v-26.352c0-.4542-.3682-.8248-.8248-.8248-.4535 0-.8241.3682-.8241.8248v26.352h-9.8829l.0024-23.8831c0-.4542-.3682-.8248-.8248-.8248l-2.4689.0024v-16.46933h13.1766v8.23613c0 .4542.3682.8248.8247.8248.4536 0 .8242-.3682.8242-.8248l-.0024-9.06027c0-.45358-.3682-.82415-.8242-.82415h-3.2937v-2.46889c0-.45417-.3682-.82474-.8247-.82474h-9.8829v-.82474c0-.45358-.3682-.82415-.8242-.82415l-2.4689.00237v-2.468889c0-.454171-.3682-.824741-.8248-.824741h-12.3494c-.4542 0-.8248.368199-.8248.824741v2.468889h-2.4713c-.4536 0-.8241.3682-.8241.82415l.0023 9.05792h-13.17654c-.45418 0-.82476.3682-.82476.8247v37.0571h-2.468941c-.454181 0-.824759.3682-.824759.8247v3.2931c0 .4541.368207.8247.824759.8247h11.117341c.4542 0 .8248-.3682.8248-.8247 0-.4536-.3682-.8242-.8248-.8242h-10.29495v-1.6471h52.70575v1.6471h-35.8234c-.4542 0-.8248.3682-.8248.8242 0 .4541.3683.8247.8248.8247l36.6457-.0024c.4542 0 .8248-.3682.8248-.8247v-3.293c0-.4542-.3682-.8224-.8248-.8224zm-17.292-44.46846h9.0581v1.64652h-9.0581zm-15.6479-4.94251h10.7053v1.64651h-10.7053zm-4.1179 49.41097h-6.5868v-9.0579h6.5868zm6.5892 0h-4.9402v-9.8827c0-.4541-.3683-.8241-.8248-.8241h-8.2363c-.4542 0-.8242.3682-.8242.8241v9.8827h-4.94025v-36.2347h19.76335zm.8218-37.8818h-6.5868v-8.23614h17.2944v21.40944h-9.8828v-12.3491c0-.456-.3688-.8242-.8248-.8242zm14.0007 37.8818h-13.1765v-23.059h13.1765z"/><path d="m8.23626 20.5866c.45418 0 .82476-.3682.82476-.8247v-1.6466c0-.4542-.36821-.8242-.82476-.8242-.45418 0-.82476.3682-.82476.8242v1.6466c0 .4565.3682.8247.82476.8247z"/><path d="m12.6276 20.5866c.4541 0 .8247-.3682.8247-.8247v-1.6466c0-.4542-.3682-.8242-.8247-.8242-.4542 0-.8248.3682-.8248.8242v1.6466c0 .4565.3706.8247.8248.8247z"/><path d="m17.0187 20.5866c.4542 0 .8248-.3682.8248-.8247v-1.6466c0-.4542-.3682-.8242-.8248-.8242-.4542 0-.8247.3682-.8247.8242v1.6466c.0023.4565.3705.8247.8247.8247z"/><path d="m21.4129 20.5866c.4542 0 .8248-.3682.8248-.8247v-1.6466c0-.4542-.3683-.8242-.8248-.8242-.4542 0-.8248.3682-.8248.8242v1.6466c0 .4565.3682.8247.8248.8247z"/><path d="m8.23626 26.3515c.45418 0 .82476-.3682.82476-.8248v-1.6465c0-.4542-.36821-.8242-.82476-.8242-.45418 0-.82476.3682-.82476.8242v1.6465c0 .4566.3682.8248.82476.8248z"/><path d="m12.6276 26.3515c.4541 0 .8247-.3682.8247-.8248v-1.6465c0-.4542-.3682-.8242-.8247-.8242-.4542 0-.8248.3682-.8248.8242v1.6465c0 .4566.3706.8248.8248.8248z"/><path d="m17.0187 26.3515c.4542 0 .8248-.3682.8248-.8248v-1.6465c0-.4542-.3682-.8242-.8248-.8242-.4542 0-.8247.3682-.8247.8242v1.6465c.0023.4566.3705.8248.8247.8248z"/><path d="m21.4129 26.3515c.4542 0 .8248-.3682.8248-.8248v-1.6465c0-.4542-.3683-.8242-.8248-.8242-.4542 0-.8248.3682-.8248.8242v1.6465c0 .4566.3682.8248.8248.8248z"/><path d="m8.23626 32.1158c.45418 0 .82476-.3682.82476-.8248v-1.6465c0-.4542-.36821-.8242-.82476-.8242-.45418 0-.82476.3682-.82476.8242v1.6465c0 .4566.3682.8248.82476.8248z"/><path d="m12.6276 32.1158c.4541 0 .8247-.3682.8247-.8248v-1.6465c0-.4542-.3682-.8242-.8247-.8242-.4542 0-.8248.3682-.8248.8242v1.6465c0 .4566.3706.8248.8248.8248z"/><path d="m17.0187 32.1158c.4542 0 .8248-.3682.8248-.8248v-1.6465c0-.4542-.3682-.8242-.8248-.8242-.4542 0-.8247.3682-.8247.8242v1.6465c.0023.4566.3705.8248.8247.8248z"/><path d="m21.4129 32.1158c.4542 0 .8248-.3682.8248-.8248v-1.6465c0-.4542-.3683-.8242-.8248-.8242-.4542 0-.8248.3682-.8248.8242v1.6465c0 .4566.3682.8248.8248.8248z"/><path d="m8.23626 37.8807c.45418 0 .82476-.3682.82476-.8248v-1.6465c0-.4542-.36821-.8242-.82476-.8242-.45418 0-.82476.3682-.82476.8242v1.6465c0 .4566.3682.8248.82476.8248z"/><path d="m12.6276 37.8807c.4541 0 .8247-.3682.8247-.8248v-1.6465c0-.4542-.3682-.8242-.8247-.8242-.4542 0-.8248.3682-.8248.8242v1.6465c0 .4566.3706.8248.8248.8248z"/><path d="m17.0187 37.8807c.4542 0 .8248-.3682.8248-.8248v-1.6465c0-.4542-.3682-.8242-.8248-.8242-.4542 0-.8247.3682-.8247.8242v1.6465c.0023.4566.3705.8248.8247.8248z"/><path d="m21.4129 37.8807c.4542 0 .8248-.3682.8248-.8248v-1.6465c0-.4542-.3683-.8242-.8248-.8242-.4542 0-.8248.3682-.8248.8242v1.6465c0 .4566.3682.8248.8248.8248z"/><path d="m33.7647 24.7048c.4542 0 .8248-.3682.8248-.8247v-16.46969c0-.45359-.3682-.82417-.8248-.82417-.4542 0-.8248.36821-.8248.82417v16.46969c0 .4565.3682.8247.8248.8247z"/><path d="m29.6462 24.7048c.4542 0 .8248-.3682.8248-.8247v-16.46969c0-.45359-.3682-.82417-.8248-.82417-.4542 0-.8247.36821-.8247.82417v16.46969c.0023.4565.3705.8247.8247.8247z"/><path d="m26.3531 7.41039c0-.45418-.3682-.82476-.8247-.82476-.4536 0-.8242.36821-.8242.82476v3.29371c0 .4536.3682.8242.8242.8242.4542 0 .8247-.3682.8247-.8242z"/><path d="m21.4128 6.58862c-.4541 0-.8247.36821-.8247.82476v3.29312c0 .4542.3682.8247.8247.8247.4542 0 .8248-.3682.8248-.8247v-3.29312c-.0024-.45655-.3706-.82476-.8248-.82476z"/><path d="m28.8245 32.1157h8.2363c.4542 0 .8247-.3682.8247-.8247 0-.4536-.3682-.8242-.8247-.8242h-8.2363c-.4542 0-.8248.3682-.8248.8242 0 .4565.3682.8247.8248.8247z"/><path d="m28.8245 36.2341h8.2363c.4542 0 .8247-.3682.8247-.8247 0-.4536-.3682-.8242-.8247-.8242h-8.2363c-.4542 0-.8248.3682-.8248.8242 0 .4542.3682.8247.8248.8247z"/><path d="m28.8245 40.3495h8.2363c.4542 0 .8247-.3682.8247-.8248 0-.4536-.3682-.8241-.8247-.8241h-8.2363c-.4542 0-.8248.3682-.8248.8241 0 .4566.3682.8248.8248.8248z"/><path d="m28.8245 44.4673h8.2363c.4542 0 .8247-.3682.8247-.8248 0-.4536-.3682-.8241-.8247-.8241h-8.2363c-.4542 0-.8248.3682-.8248.8241 0 .4566.3682.8248.8248.8248z"/><path d="m28.8245 48.5857h8.2363c.4542 0 .8247-.3682.8247-.8248 0-.4536-.3682-.8241-.8247-.8241h-8.2363c-.4542 0-.8248.3682-.8248.8241 0 .4566.3682.8248.8248.8248z"/><path d="m41.1762 12.3506c0-.4541-.3682-.8247-.8248-.8247-.4535 0-.8241.3682-.8241.8247v1.6466c0 .4542.3682.8247.8241.8247.4542 0 .8248-.3682.8248-.8247z"/><path d="m45.2942 12.3506c0-.4541-.3682-.8247-.8248-.8247-.4536 0-.8241.3682-.8241.8247v1.6466c0 .4542.3682.8247.8241.8247.4542 0 .8248-.3682.8248-.8247z"/><path d="m49.4097 12.3506c0-.4541-.3682-.8247-.8248-.8247-.4536 0-.8242.3682-.8242.8247v1.6466c0 .4542.3682.8247.8242.8247.4542 0 .8248-.3682.8248-.8247z"/><path d="m40.3515 17.2929c-.4542 0-.8248.3682-.8248.8248v1.6465c0 .4542.3682.8242.8248.8242.4542 0 .8247-.3682.8247-.8242v-1.6465c0-.4566-.3682-.8248-.8247-.8248z"/><path d="m45.2941 18.1153c0-.4542-.3682-.8248-.8248-.8248-.4536 0-.8242.3682-.8242.8248v1.6465c0 .4542.3682.8248.8242.8248.4542 0 .8248-.3682.8248-.8248z"/><path d="m49.4096 18.1153c0-.4542-.3682-.8248-.8248-.8248-.4535 0-.8241.3682-.8241.8248v1.6465c0 .4542.3682.8248.8241.8248.4542 0 .8248-.3682.8248-.8248z"/><path d="m45.2941 23.8802c0-.4541-.3682-.8247-.8248-.8247-.4536 0-.8242.3682-.8242.8247v1.6466c0 .4542.3682.8248.8242.8248.4542 0 .8248-.3683.8248-.8248z"/><path d="m49.4096 23.8802c0-.4541-.3682-.8247-.8248-.8247-.4535 0-.8241.3682-.8241.8247v1.6466c0 .4542.3682.8248.8241.8248.4542 0 .8248-.3683.8248-.8248z"/><path d="m45.2941 29.6445c0-.4542-.3682-.8248-.8248-.8248-.4536 0-.8242.3682-.8242.8248v1.6465c0 .4542.3682.8248.8242.8248.4542 0 .8248-.3682.8248-.8248z"/><path d="m49.4096 29.6445c0-.4542-.3682-.8248-.8248-.8248-.4535 0-.8241.3682-.8241.8248v1.6465c0 .4542.3682.8248.8241.8248.4542 0 .8248-.3682.8248-.8248z"/><path d="m45.2941 35.4094c0-.4542-.3682-.8247-.8248-.8247-.4536 0-.8242.3682-.8242.8247v1.6466c0 .4541.3682.8247.8242.8247.4542 0 .8248-.3682.8248-.8247z"/><path d="m49.4096 35.4094c0-.4542-.3682-.8247-.8248-.8247-.4535 0-.8241.3682-.8241.8247v1.6466c0 .4541.3682.8247.8241.8247.4542 0 .8248-.3682.8248-.8247z"/><path d="m45.2941 41.1742c0-.4541-.3682-.8247-.8248-.8247-.4536 0-.8242.3682-.8242.8247v1.6466c0 .4542.3682.8248.8242.8248.4542 0 .8248-.3682.8248-.8248z"/><path d="m49.4096 41.1742c0-.4541-.3682-.8247-.8248-.8247-.4535 0-.8241.3682-.8241.8247v1.6466c0 .4542.3682.8248.8241.8248.4542 0 .8248-.3682.8248-.8248z"/><path d="m44.4694 46.1144c-.4542 0-.8248.3682-.8248.8247v1.6466c0 .4542.3682.8247.8248.8247.4541 0 .8247-.3687.8247-.8247v-1.6466c0-.4565-.3682-.8247-.8247-.8247z"/><path d="m48.5878 46.1144c-.4542 0-.8247.3682-.8247.8247v1.6466c0 .4542.3682.8247.8247.8247.4542 0 .8248-.3687.8248-.8247v-1.6466c-.0024-.4565-.3706-.8247-.8248-.8247z"/></g></svg>