<svg style="clip-rule:evenodd;fill-rule:evenodd;stroke:#000;stroke-width:1.3;stroke-linejoin:round;stroke-miterlimit:2" viewBox="0 0 95 89" xmlns="http://www.w3.org/2000/svg"><g fill-rule="nonzero" transform="translate(-2.85006 -5.55366)"><path d="m95.777 91.668h-18.055v-10.074c1.609 1.109 3.535 1.742 5.555 1.742 5.351 0 9.722-4.371 9.722-9.722 0-1.907-.535-3.743-1.574-5.317 1.02-4.203-2.019-8.277-6.297-8.555-2.574-5.425-9.406-7.257-14.352-3.816v-5.242c0-.758-.629-1.391-1.39-1.391-.758 0-1.391.629-1.391 1.391l.004 8.207c-.168.277-.316.554-.465.851-1.406.094-2.668.594-3.703 1.371v-2.777c0-.758-.629-1.39-1.391-1.39-.757 0-1.39.628-1.39 1.39 0 9.371-.055 8.945.183 9.965-3.871 5.891-.296 13.926 6.758 14.945l.008 8.422h-9.723v-13.891c0-.758-.629-1.391-1.39-1.391h-11.109c-.758 0-1.391.629-1.391 1.391v13.891h-8.332v-56.946h31.945v4.832c0 .758.629 1.39 1.391 1.39.758 0 1.39-.628 1.39-1.39l-.004-6.223c0-.758-.628-1.39-1.39-1.39h-13.891l.004-18.051h1.39c.758 0 1.391-.629 1.391-1.391v-5.555c0-.758-.629-1.39-1.391-1.39h-50c-.757 0-1.39.629-1.39 1.39v5.555c0 .758.629 1.391 1.39 1.391h1.391v41.668c0 .757.629 1.39 1.391 1.39.757 0 1.39-.629 1.39-1.39l-.008-41.668h41.668v18.055h-4.168v-12.5c0-.758-.629-1.391-1.39-1.391h-5.555c-.758 0-1.391.629-1.391 1.391v12.5h-4.168l.004-12.5c0-.758-.629-1.391-1.39-1.391h-5.555c-.758 0-1.391.629-1.391 1.391v16.668c0 .757.629 1.39 1.391 1.39h4.168v5.555h-4.168c-.758 0-1.391.629-1.391 1.39v16.668c0 .758.629 1.391 1.391 1.391h4.168v5.555h-4.168c-.758 0-1.391.629-1.391 1.39v16.668c0 .758.629 1.391 1.391 1.391h4.168v4.156h-22.223v-25c0-.758-.629-1.39-1.391-1.39-.757 0-1.39.628-1.39 1.39v25h-4.031c-.758 0-1.391.629-1.391 1.391 0 .758.629 1.39 1.391 1.39h91.535c.757 0 1.39-.629 1.39-1.39 0-.762-.633-1.391-1.39-1.391zm-87.5-80.559v-2.777h47.223v2.777zm34.703 9.723h2.777v11.109h-2.777zm-12.5 13.891v-13.891h2.777v13.891zm0 25v-13.891h2.777v13.891zm0 25v-13.891h2.777v13.891zm16.668 6.945v-12.5h8.332v12.5zm16.723-22.277c.297-.371.371-.871.203-1.316-1.019-2.852 1.242-5.817 4.277-5.555.629.055 1.223-.332 1.426-.926.965-2.758 3.594-4.648 6.555-4.648 2.945 0 5.574 1.871 6.555 4.648.203.594.797.981 1.425.926 3.02-.258 5.297 2.723 4.278 5.555-.168.445-.074.945.203 1.316 3.465 4.52.258 11.168-5.52 11.168-2.203 0-4.242-1.035-5.554-2.777v-4.981l2.371-2.371c.535-.535.535-1.426 0-1.965-.535-.535-1.426-.535-1.965 0l-.406.407.004-2.204c0-.757-.629-1.39-1.391-1.39-.758 0-1.391.629-1.391 1.39v5.743l-2-1.332c-.629-.426-1.5-.258-1.925.39-.426.649-.258 1.5.39 1.926l3.555 2.371v2.035c-1.316 1.743-3.352 2.778-5.555 2.778-5.777-.024-9.015-6.653-5.535-11.188zm6.887 13.852c1.519-.223 2.926-.777 4.168-1.648v10.074h-4.168z"/><path d="m16.609 37.5h5.555c.758 0 1.39-.629 1.39-1.391v-16.668c0-.757-.629-1.39-1.39-1.39h-5.555c-.758 0-1.391.629-1.391 1.39v16.668c.004.762.614 1.391 1.391 1.391zm1.391-16.668h2.777v13.891h-2.777z"/><path d="m15.223 61.109c0 .758.629 1.391 1.391 1.391h5.554c.758 0 1.391-.629 1.391-1.391v-16.668c0-.758-.629-1.391-1.391-1.391h-5.554c-.758 0-1.391.629-1.391 1.391zm2.777-15.277h2.778v13.891h-2.778z"/><path d="m15.223 86.109c0 .758.629 1.391 1.391 1.391h5.554c.758 0 1.391-.629 1.391-1.391v-16.668c0-.758-.629-1.391-1.391-1.391h-5.554c-.758 0-1.391.629-1.391 1.391zm2.777-15.277h2.778v13.891h-2.778z"/><path d="m42.98 38.891c0-.758-.629-1.391-1.391-1.391-.757 0-1.39.629-1.39 1.391v6.945c0 .758.629 1.391 1.39 1.391.758 0 1.391-.629 1.391-1.391z"/><path d="m49.926 38.891c0-.758-.629-1.391-1.391-1.391-.757 0-1.39.629-1.39 1.391v6.945c0 .758.629 1.391 1.39 1.391.758 0 1.391-.629 1.391-1.391z"/><path d="m56.871 38.891c0-.758-.629-1.391-1.391-1.391-.757 0-1.39.629-1.39 1.391v6.945c0 .758.629 1.391 1.39 1.391.758 0 1.391-.629 1.391-1.391z"/><path d="m63.816 38.891c0-.758-.629-1.391-1.391-1.391-.757 0-1.39.629-1.39 1.391v6.945c0 .758.629 1.391 1.39 1.391.758 0 1.391-.629 1.391-1.391z"/><path d="m41.594 56.945c-.758 0-1.391.629-1.391 1.391v6.945c0 .758.629 1.391 1.391 1.391.758 0 1.391-.629 1.391-1.391l-.004-6.949c0-.758-.61-1.387-1.387-1.387z"/><path d="m48.535 56.945c-.758 0-1.391.629-1.391 1.391v6.945c0 .758.629 1.391 1.391 1.391.758 0 1.391-.629 1.391-1.391v-6.949c0-.758-.61-1.387-1.391-1.387z"/><path d="m55.48 56.945c-.758 0-1.391.629-1.391 1.391v6.945c0 .758.629 1.391 1.391 1.391.758 0 1.391-.629 1.391-1.391v-6.949c0-.758-.614-1.387-1.391-1.387z"/><path d="m42.98 51.391c0-.758-.629-1.391-1.391-1.391-.757 0-1.39.629-1.39 1.391v1.391c0 .757.629 1.39 1.39 1.39.758 0 1.391-.629 1.391-1.39z"/><path d="m49.926 51.391c0-.758-.629-1.391-1.391-1.391-.757 0-1.39.629-1.39 1.391v1.391c0 .757.629 1.39 1.39 1.39.758 0 1.391-.629 1.391-1.39z"/><path d="m56.871 51.391c0-.758-.629-1.391-1.391-1.391-.757 0-1.39.629-1.39 1.391v1.391c0 .757.629 1.39 1.39 1.39.758 0 1.391-.629 1.391-1.39z"/><path d="m62.426 50c-.758 0-1.391.629-1.391 1.391v1.39c0 .758.629 1.391 1.391 1.391.758 0 1.391-.629 1.391-1.391v-1.39c0-.762-.614-1.391-1.391-1.391z"/></g></svg>