<svg fill="none" height="56" viewBox="0 0 56 56" width="56" xmlns="http://www.w3.org/2000/svg" xmlns:xlink="http://www.w3.org/1999/xlink"><clipPath id="a"><path d="m12 14h32v14h-32z"/></clipPath><g stroke="#000" stroke-width="2"><rect fill="#fff" height="38" rx="2" width="54" x="1" y="1"/><path d="m36 51v4h-16v-16h16v8" stroke-linecap="round"/><path d="m12 55h32" stroke-linecap="round"/></g><path d="m20 39h16v6h-16z" fill="#000"/><g clip-path="url(#a)" clip-rule="evenodd" fill="#000" fill-rule="evenodd"><path d="m28.73 25.941c0 .662-.5401 1.199-1.2001 1.199s-1.1999-.539-1.1999-1.203v-8.398c0-.496-.2801-1.129-.6401-1.129-.48 0-.67-.0779-.9.2231h-.01c-.19.261-.2899.5819-.2799.9059v8.398c0 .664-.5401 1.203-1.2001 1.203s-1.1999-.539-1.1999-1.203v-8.398c0-1.801 1.23-3.5309 3.03-3.5309.94 0 1.5899-.0001 2.3999.7179.8-.718 1.46-.7179 2.4-.7179 1.8 0 3.0401 1.7219 3.0401 3.5309v8.398c0 .664-.54 1.203-1.2 1.203s-1.2001-.539-1.2001-1.203v-8.398c0-.496-.28-1.129-.64-1.129-.48 0-.67-.0779-.9.2231-.19.261-.2999.5819-.2799.9059l-.02 8.398z"/><path d="m19.77 17.8c0 .661-.5401 1.2-1.2001 1.2s-1.1999-.539-1.1999-1.2c0-1.398-1.7501-1.8-2.5501-.98v-.004c-.26.262-.41.613-.4.984v5.551c0 1.383 1.7401 1.789 2.5601.981v-.004c.25-.262.39-.613.39-.981 0-.66.5399-1.199 1.1999-1.199.67 0 1.2001.539 1.2001 1.199 0 2.102-1.7 3.801-3.79 3.801-1.16 0-2.08-.328-2.87-1.117-.71-.707-1.11-1.672-1.11-2.676v-5.555c0-2.101 1.6999-3.8 3.7999-3.8 1.16 0 2.07.324 2.86 1.113v-.004c.71.711 1.1101 1.676 1.1101 2.684z"/><path d="m43.05 17.89c0 .66-.54 1.199-1.2 1.199s-1.2001-.539-1.2001-1.199c0-.601-.3599-1.14-.9199-1.371-.55-.23-1.19-.101-1.61.324-.43.422-.55 1.059-.32 1.614.22.554.77.918 1.36.918 3.45 0 5.19 4.183 2.75 6.625-2.43 2.441-6.63.703-6.63-2.743 0-.664.54-1.199 1.2-1.199s1.2.535 1.2 1.199c0 .598.37 1.141.92 1.368.55.23 1.19.101 1.61-.325.43-.425.55-1.062.32-1.617-.23-.551-.77-.91-1.37-.91-3.45 0-5.18-4.191-2.74-6.629 2.43-2.437 6.63-.703 6.63 2.742z"/></g></svg>