<svg fill="none" height="64" viewBox="0 0 64 64" width="64" xmlns="http://www.w3.org/2000/svg"><g stroke="#000"><path d="m30.3678 24.9568-2.8591-2.8591 3.4336-4.0345" stroke-linecap="round" stroke-linejoin="round" stroke-miterlimit="1.5" stroke-width="1.68894"/><path d="m32.679 24.9568 2.8591-2.8591-3.4336-4.0345" stroke-linecap="round" stroke-linejoin="round" stroke-miterlimit="1.5" stroke-width="1.68894"/><path d="m5 51c0-2.2091 1.79086-4 4-4h46c2.2091 0 4 1.7909 4 4v4c0 2.2091-1.7909 4-4 4h-46c-2.20914 0-4-1.7909-4-4z" fill="#fff" stroke-width="2"/><path d="m26 40.5714v1.4286c0 1.1046.8954 2 2 2h8c1.1046 0 2-.8954 2-2v-8c0-1.1046-.8954-2-2-2h-8c-1.1046 0-2 .8954-2 2v3.1429" stroke-linecap="round" stroke-width="2"/><path d="m32 35.4286h2.5714" stroke-linecap="round" stroke-width="2"/><path d="m32 38.8571h2.5714" stroke-linecap="round" stroke-width="2"/><path d="m9 34c0-1.1046.89543-2 2-2h8c1.1046 0 2 .8954 2 2v8c0 1.1046-.8954 2-2 2h-8c-1.10457 0-2-.8954-2-2z" fill="#fff" stroke-width="2"/><path d="m15 35.4286h2.5714" stroke-linecap="round" stroke-width="2"/><path d="m15 38.8571h2.5714" stroke-linecap="round" stroke-width="2"/><path d="m43 34c0-1.1046.8954-2 2-2h8c1.1046 0 2 .8954 2 2v8c0 1.1046-.8954 2-2 2h-8c-1.1046 0-2-.8954-2-2z" fill="#fff" stroke-width="2"/><path d="m49 35.4286h2.5714" stroke-linecap="round" stroke-width="2"/><path d="m49 38.8571h2.5714" stroke-linecap="round" stroke-width="2"/><path d="m27 14c0-1.1046.8954-2 2-2h5c1.1046 0 2 .8954 2 2v3c0 1.1046-.8954 2-2 2h-5c-1.1046 0-2-.8954-2-2z" fill="#fff" stroke-width="2"/><path d="m5 7c0-1.10457.89543-2 2-2h50c1.1046 0 2 .89543 2 2v4c0 1.1046-.8954 2-2 2h-50c-1.10457 0-2-.8954-2-2z" fill="#fff" stroke-width="2"/></g><circle cx="22" cy="53" fill="#000" r="3"/><circle cx="12" cy="53" fill="#000" r="3"/><circle cx="32" cy="53" fill="#000" r="3"/><circle cx="42" cy="53" fill="#000" r="3"/><circle cx="52" cy="53" fill="#000" r="3"/></svg>