<svg width="64" height="64" viewBox="0 0 64 64" fill="none" xmlns="http://www.w3.org/2000/svg">
<path d="M30.3678 24.9568L27.5087 22.0977L30.9423 18.0632" stroke="black" stroke-width="1.68894" stroke-miterlimit="1.5" stroke-linecap="round" stroke-linejoin="round"/>
<path d="M32.679 24.9568L35.5381 22.0977L32.1045 18.0632" stroke="black" stroke-width="1.68894" stroke-miterlimit="1.5" stroke-linecap="round" stroke-linejoin="round"/>
<path d="M5 51C5 48.7909 6.79086 47 9 47H55C57.2091 47 59 48.7909 59 51V55C59 57.2091 57.2091 59 55 59H9C6.79086 59 5 57.2091 5 55V51Z" fill="white" stroke="black" stroke-width="2"/>
<path d="M26 40.5714V42C26 43.1046 26.8954 44 28 44H36C37.1046 44 38 43.1046 38 42V34C38 32.8954 37.1046 32 36 32H28C26.8954 32 26 32.8954 26 34V37.1429" stroke="black" stroke-width="2" stroke-linecap="round"/>
<path d="M32 35.4286H34.5714" stroke="black" stroke-width="2" stroke-linecap="round"/>
<path d="M32 38.8571H34.5714" stroke="black" stroke-width="2" stroke-linecap="round"/>
<path d="M9 34C9 32.8954 9.89543 32 11 32H19C20.1046 32 21 32.8954 21 34V42C21 43.1046 20.1046 44 19 44H11C9.89543 44 9 43.1046 9 42V34Z" fill="white" stroke="black" stroke-width="2"/>
<path d="M15 35.4286H17.5714" stroke="black" stroke-width="2" stroke-linecap="round"/>
<path d="M15 38.8571H17.5714" stroke="black" stroke-width="2" stroke-linecap="round"/>
<path d="M43 34C43 32.8954 43.8954 32 45 32H53C54.1046 32 55 32.8954 55 34V42C55 43.1046 54.1046 44 53 44H45C43.8954 44 43 43.1046 43 42V34Z" fill="white" stroke="black" stroke-width="2"/>
<path d="M49 35.4286H51.5714" stroke="black" stroke-width="2" stroke-linecap="round"/>
<path d="M49 38.8571H51.5714" stroke="black" stroke-width="2" stroke-linecap="round"/>
<path d="M27 14C27 12.8954 27.8954 12 29 12H34C35.1046 12 36 12.8954 36 14V17C36 18.1046 35.1046 19 34 19H29C27.8954 19 27 18.1046 27 17V14Z" fill="white" stroke="black" stroke-width="2"/>
<path d="M5 7C5 5.89543 5.89543 5 7 5H57C58.1046 5 59 5.89543 59 7V11C59 12.1046 58.1046 13 57 13H7C5.89543 13 5 12.1046 5 11V7Z" fill="white" stroke="black" stroke-width="2"/>
<circle cx="22" cy="53" r="3" fill="black"/>
<circle cx="12" cy="53" r="3" fill="black"/>
<circle cx="32" cy="53" r="3" fill="black"/>
<circle cx="42" cy="53" r="3" fill="black"/>
<circle cx="52" cy="53" r="3" fill="black"/>
</svg>
