<svg fill="none" height="64" viewBox="0 0 64 64" width="64" xmlns="http://www.w3.org/2000/svg"><path d="m5 11h54v32c0 1.1046-.8954 2-2 2h-50c-1.10457 0-2-.8954-2-2z" fill="#fff" stroke="#000" stroke-linejoin="round" stroke-width="2"/><path d="m47 5h-40c-1.10457 0-2 .89543-2 2v4h54v-4c0-1.10457-.8954-2-2-2h-6" stroke="#000" stroke-linecap="round" stroke-linejoin="round" stroke-width="2"/><circle cx="9" cy="8" fill="#000" r="1"/><circle cx="12" cy="8" fill="#000" r="1"/><circle cx="15" cy="8" fill="#000" r="1"/><path d="m9 39h46" stroke="#000" stroke-linecap="round" stroke-width="2"/><g fill="#000"><rect height="16" rx="1" width="4" x="14" y="24"/><rect height="24" rx="1" width="4" x="30" y="16"/><rect height="20" rx="1" width="4" x="22" y="20"/><rect height="20" rx="1" width="4" x="46" y="20"/><rect height="16" rx="1" width="4" x="38" y="24"/><path d="m35 29c-8.8366 0-16 7.1634-16 16h32c0-8.8366-7.1634-16-16-16z" stroke="#000" stroke-width="2"/></g><circle cx="32" cy="43" fill="#fff" r="16"/><path d="m22 55.4907c2.7392 2.1959 6.2162 3.5093 10 3.5093 8.8366 0 16-7.1634 16-16s-7.1634-16-16-16-16 7.1634-16 16c0 3.7785 1.3097 7.251 3.5 9.9884" stroke="#000" stroke-linecap="round" stroke-width="2"/><path d="m34.8284 51.829c-1.5621 1.5621-4.0947 1.5621-5.6568 0s-1.5621-4.0947 0-5.6568 13.8284-8.1722 13.8284-8.1722-6.6095 12.2669-8.1716 13.829z" fill="#fff"/><path d="m43 38 .8803.4743c.2096-.3888.1391-.8691-.1732-1.1814-.3124-.3124-.7926-.3828-1.1815-.1732zm-8.8787 13.1219c-1.1716 1.1716-3.0711 1.1716-4.2426 0l-1.4142 1.4142c1.9526 1.9527 5.1184 1.9527 7.071 0zm-4.2426 0c-1.1716-1.1715-1.1716-3.071 0-4.2426l-1.4142-1.4142c-1.9527 1.9526-1.9527 5.1184 0 7.071zm0-4.2426c.1217-.1217.4129-.3496.8985-.6802.4662-.3176 1.0584-.6946 1.7366-1.1102 1.3553-.8306 3.0235-1.7968 4.6507-2.7185 1.6256-.9209 3.2035-1.7936 4.3754-2.4364.5858-.3213 1.0698-.5849 1.4072-.7681.1687-.0916.3007-.1631.3905-.2117.0449-.0243.0792-.0428.1022-.0552.0115-.0062.0202-.0109.026-.0141.0029-.0015.0051-.0027.0065-.0035.0007-.0003.0013-.0006.0016-.0008.0002-.0001.0003-.0002.0004-.0002.0001-.0001.0001-.0001-.4743-.8804s-.4745-.8803-.4746-.8802c-.0001 0-.0002.0001-.0004.0002-.0004.0002-.001.0006-.0018.001-.0015.0008-.0038.002-.0068.0037-.006.0032-.0149.008-.0267.0143-.0234.0127-.0582.0315-.1036.056-.0906.0491-.2237.1211-.3934.2133-.3395.1844-.826.4493-1.4146.7721-1.1769.6455-2.7632 1.5229-4.3994 2.4498-1.6347.926-3.3259 1.9053-4.7099 2.7534-.6915.4238-1.3139.8195-1.8174 1.1624-.4843.3298-.9181.6502-1.1869.9191zm13.1213-8.8793c-.8803-.4743-.8804-.4743-.8804-.4742s-.0001.0002-.0002.0003c-.0002.0004-.0005.0009-.0009.0016-.0007.0015-.0019.0036-.0035.0065-.0031.0058-.0078.0145-.014.0261-.0124.023-.031.0573-.0552.1022-.0486.0897-.1201.2218-.2117.3905-.1832.3374-.4468.8215-.7681 1.4073-.6426 1.1719-1.5153 2.7499-2.4361 4.3756-.9217 1.6272-1.8878 3.2955-2.7183 4.6509-.4156.6781-.7926 1.2704-1.1101 1.7367-.3307.4855-.5585.7768-.6802.8984l1.4142 1.4142c.2689-.2688.5893-.7026.9191-1.1869.3429-.5036.7386-1.126 1.1623-1.8175.8481-1.3841 1.8273-3.0753 2.7532-4.7101.9268-1.6363 1.8042-3.2227 2.4496-4.3996.3228-.5887.5877-1.0752.7721-1.4147.0921-.1698.1642-.3028.2132-.3935.0245-.0453.0433-.0801.056-.1036.0063-.0117.0111-.0206.0144-.0267.0016-.003.0028-.0052.0037-.0068.0004-.0007.0007-.0013.0009-.0017.0001-.0002.0002-.0004.0002-.0005.0001-.0001.0001-.0002-.8802-.4745z" fill="#000"/><path d="m22 43c0-5.5228 4.4772-10 10-10 2.7974 0 5.3265 1.1486 7.1414 3" stroke="#000" stroke-linecap="round" stroke-width="2"/><circle cx="32" cy="49" fill="#000" r="1"/></svg>