<svg width="56" height="60" viewBox="0 0 56 60" fill="none" xmlns="http://www.w3.org/2000/svg">
<path d="M1 7H55V39C55 40.105 54.105 41 53 41H3C1.895 41 1 40.105 1 39V7Z" fill="white"/>
<path d="M11.494 20.0331V35.2495C11.494 36.4902 11.01 37.4782 10.416 37.4782H5.49402C4.90002 37.4782 4.41602 36.4902 4.41602 35.2495V20.0331C4.41602 18.823 4.90002 17.8369 5.49402 17.8369H10.416C11.01 17.8695 11.494 18.823 11.494 20.0331Z" fill="black"/>
<path d="M19.509 15.549V32.819C19.509 33.7424 19.025 34.4777 18.431 34.4777H13.509C12.9 34.4777 12.415 33.7424 12.415 32.819V15.549C12.415 14.6485 12.9 13.9147 13.509 13.9147H18.431C19.025 13.9147 19.509 14.6485 19.509 15.549Z" fill="black"/>
<path d="M27.681 16.6009V26.3819C27.681 26.9919 27.197 27.4759 26.603 27.4759H21.681C21.087 27.4759 20.603 26.9919 20.603 26.3819V16.6009C20.603 16.0069 21.087 15.5229 21.681 15.5229H26.603C27.212 15.5389 27.681 16.0069 27.681 16.6009Z" fill="black"/>
<path d="M35.791 10.2259V26.3979C35.791 27.0069 35.307 27.4919 34.713 27.4919H29.9C29.307 27.4919 28.822 27.0069 28.822 26.3979V10.2259C28.822 9.63195 29.307 9.14795 29.9 9.14795H34.713C35.307 9.14795 35.791 9.63195 35.791 10.2259Z" fill="black"/>
<path d="M1 29V7H55V39C55 40.105 54.105 41 53 41H3C1.895 41 1 40.105 1 39V33" stroke="black" stroke-width="2" stroke-linecap="round" stroke-linejoin="round"/>
<path d="M43 1H3C1.895 1 1 1.895 1 3V7H55V3C55 1.895 54.105 1 53 1H47" stroke="black" stroke-width="2" stroke-linecap="round" stroke-linejoin="round"/>
<path d="M5 5C5.55228 5 6 4.55228 6 4C6 3.44772 5.55228 3 5 3C4.44772 3 4 3.44772 4 4C4 4.55228 4.44772 5 5 5Z" fill="black"/>
<path d="M8 5C8.55228 5 9 4.55228 9 4C9 3.44772 8.55228 3 8 3C7.44772 3 7 3.44772 7 4C7 4.55228 7.44772 5 8 5Z" fill="black"/>
<path d="M11 5C11.5523 5 12 4.55228 12 4C12 3.44772 11.5523 3 11 3C10.4477 3 10 3.44772 10 4C10 4.55228 10.4477 5 11 5Z" fill="black"/>
<path d="M31 25C22.163 25 15 32.163 15 41H47C47 32.163 39.837 25 31 25Z" fill="black" stroke="black" stroke-width="2"/>
<path d="M28 55C36.8366 55 44 47.8366 44 39C44 30.1634 36.8366 23 28 23C19.1634 23 12 30.1634 12 39C12 47.8366 19.1634 55 28 55Z" fill="white"/>
<path d="M14.141 47C12.779 44.647 12 41.914 12 39C12 30.163 19.163 23 28 23C36.837 23 44 30.163 44 39C44 47.837 36.837 55 28 55C24.385 55 21.049 53.801 18.37 51.778" stroke="black" stroke-width="2" stroke-linecap="round"/>
<path d="M40.4401 15.006H50.4401" stroke="black" stroke-width="2" stroke-linecap="round"/>
<path d="M40.4401 23.006H50.4401" stroke="black" stroke-width="2" stroke-linecap="round"/>
<path d="M40.4401 19.006H46.4401" stroke="black" stroke-width="2" stroke-linecap="round"/>
<path d="M16 40.0651C16 40.0651 27.38 28.6691 40 40.0651" stroke="black" stroke-width="2" stroke-miterlimit="1.5" stroke-linecap="round" stroke-linejoin="round"/>
<path d="M21.09 37.5331C21.09 37.5331 27.2899 47.4501 35.7999 37.5331" stroke="black" stroke-width="2" stroke-miterlimit="1.5" stroke-linecap="round" stroke-linejoin="round"/>
<path d="M28.4468 39.7367C29.2752 39.7367 29.9468 39.0651 29.9468 38.2367C29.9468 37.4083 29.2752 36.7367 28.4468 36.7367C27.6184 36.7367 26.9468 37.4083 26.9468 38.2367C26.9468 39.0651 27.6184 39.7367 28.4468 39.7367Z" fill="black"/>
</svg>
