<svg fill="none" height="60" viewBox="0 0 56 60" width="56" xmlns="http://www.w3.org/2000/svg"><path d="m1 7h54v32c0 1.105-.895 2-2 2h-50c-1.105 0-2-.895-2-2z" fill="#fff"/><g fill="#000"><path d="m11.494 20.0331v15.2164c0 1.2407-.484 2.2287-1.078 2.2287h-4.92198c-.594 0-1.078-.988-1.078-2.2287v-15.2164c0-1.2101.484-2.1962 1.078-2.1962h4.92198c.594.0326 1.078.9861 1.078 2.1962z"/><path d="m19.509 15.549v17.27c0 .9234-.484 1.6587-1.078 1.6587h-4.922c-.609 0-1.094-.7353-1.094-1.6587v-17.27c0-.9005.485-1.6343 1.094-1.6343h4.922c.594 0 1.078.7338 1.078 1.6343z"/><path d="m27.681 16.6009v9.781c0 .61-.484 1.094-1.078 1.094h-4.922c-.594 0-1.078-.484-1.078-1.094v-9.781c0-.594.484-1.078 1.078-1.078h4.922c.609.016 1.078.484 1.078 1.078z"/><path d="m35.791 10.2259v16.172c0 .609-.484 1.094-1.078 1.094h-4.813c-.593 0-1.078-.485-1.078-1.094v-16.172c0-.59395.485-1.07795 1.078-1.07795h4.813c.594 0 1.078.484 1.078 1.07795z"/></g><path d="m1 29v-22h54v32c0 1.105-.895 2-2 2h-50c-1.105 0-2-.895-2-2v-6" stroke="#000" stroke-linecap="round" stroke-linejoin="round" stroke-width="2"/><path d="m43 1h-40c-1.105 0-2 .895-2 2v4h54v-4c0-1.105-.895-2-2-2h-6" stroke="#000" stroke-linecap="round" stroke-linejoin="round" stroke-width="2"/><path d="m5 5c.55228 0 1-.44772 1-1s-.44772-1-1-1-1 .44772-1 1 .44772 1 1 1z" fill="#000"/><path d="m8 5c.55228 0 1-.44772 1-1s-.44772-1-1-1-1 .44772-1 1 .44772 1 1 1z" fill="#000"/><path d="m11 5c.5523 0 1-.44772 1-1s-.4477-1-1-1-1 .44772-1 1 .4477 1 1 1z" fill="#000"/><path d="m31 25c-8.837 0-16 7.163-16 16h32c0-8.837-7.163-16-16-16z" fill="#000" stroke="#000" stroke-width="2"/><path d="m28 55c8.8366 0 16-7.1634 16-16s-7.1634-16-16-16-16 7.1634-16 16 7.1634 16 16 16z" fill="#fff"/><path d="m14.141 47c-1.362-2.353-2.141-5.086-2.141-8 0-8.837 7.163-16 16-16s16 7.163 16 16-7.163 16-16 16c-3.615 0-6.951-1.199-9.63-3.222" stroke="#000" stroke-linecap="round" stroke-width="2"/><path d="m40.4401 15.006h10" stroke="#000" stroke-linecap="round" stroke-width="2"/><path d="m40.4401 23.006h10" stroke="#000" stroke-linecap="round" stroke-width="2"/><path d="m40.4401 19.006h6" stroke="#000" stroke-linecap="round" stroke-width="2"/><path d="m29.4662 42.085c.3505.3287.7887.5145 1.2598.5145.4816 0 .9309-.1858 1.2597-.5363.4816-.4823.6351-1.2268.394-1.8731l3.9102-4.2173c.1977.0771.3835.11.5917.11.4823 0 .931-.1864 1.271-.5257.6898-.7011.6898-1.8402 0-2.5307-.34-.3393-.7887-.5258-1.2598-.5258s-.9204.1865-1.2485.5146c-.504.4935-.6575 1.2267-.3947 1.8843l-3.932 4.2061c-.1977-.0659-.3834-.0988-.5804-.0988-.4711 0-.9205.1864-1.2598.5257l-.0329.033-3.0565-.9197c-.0652-.3618-.2187-.6681-.4486-.8981-.34-.3399-.7887-.5152-1.271-.5152-.4816 0-.9197.1865-1.2597.5258-.3281.3287-.5258.7886-.5258 1.2597 0 .164.0225.3176.0659.4928l-3.6144 2.4865c-.2846-.164-.6022-.2516-.931-.2516-.4598 0-.898.1752-1.2162.5033-.6899.701-.6899 1.8402 0 2.5307.3399.3393.7886.5257 1.2597.5257s.9309-.1864 1.2597-.5257c.3947-.3947.5699-.9639.4711-1.5339l3.768-2.5846c.2411.1093.4711.164.701.164.4823 0 .931-.1857 1.2597-.5257.0435-.0435.0765-.0877.1206-.1536l2.9247.8875c.0547.3835.2299.7669.5145 1.0516z" fill="#000"/></svg>