<svg fill="none" height="56" viewBox="0 0 56 56" width="56" xmlns="http://www.w3.org/2000/svg"><g stroke="#000" stroke-width="2"><rect fill="#fff" height="38" rx="2" width="54" x="1" y="1"/><path d="m36 51v4h-16v-16h16v8" stroke-linecap="round"/><path d="m12 55h32" stroke-linecap="round"/></g><path d="m20 39h16v6h-16z" fill="#000"/><rect fill="#fff" height="16" rx="2" stroke="#000" stroke-width="2" width="16" x="20" y="13"/><path d="m23 18c0-1.1046.8954-2 2-2h6c1.1046 0 2 .8954 2 2v3.1716c0 .5304-.2107 1.0391-.5858 1.4142l-2.8284 2.8284c-.3751.3751-.8838.5858-1.4142.5858h-3.1716c-1.1046 0-2-.8954-2-2z" fill="#000"/><g stroke="#000" stroke-linecap="round" stroke-width="2"><path d="m28 13v-2"/><path d="m24 13v-2"/><path d="m32 13v-2"/><path d="m28 31v-2"/><path d="m24 31v-2"/><path d="m32 31v-2"/><path d="m20 21h-2"/><path d="m20 25h-2"/><path d="m20 17h-2"/><path d="m38 21h-2"/><path d="m38 25h-2"/><path d="m38 17h-2"/></g></svg>