<svg width="56" height="43" viewBox="0 0 56 43" fill="none" xmlns="http://www.w3.org/2000/svg">
<path d="M47.1494 24.9677L43.6914 22.9911C43.7544 22.3947 43.7894 21.7844 43.7894 21.1671C43.7894 20.5498 43.7544 19.9465 43.6914 19.3431L47.1424 17.3734C47.7584 17.0266 48.1994 16.4648 48.3884 15.7852C48.5774 15.1055 48.4864 14.3911 48.1294 13.7877L44.3984 7.37936C44.0484 6.77597 43.4464 6.32516 42.7604 6.15177C42.0744 5.97839 41.3674 6.08242 40.7864 6.42919L37.3144 8.39887C36.3344 7.67065 35.2634 7.06032 34.1294 6.5679V2.61468C34.1294 1.1721 32.9394 0 31.4694 0H24.0285C22.5655 0 21.3685 1.1721 21.3685 2.61468V6.57484C20.2275 7.06726 19.1635 7.67758 18.1835 8.40581L14.7325 6.44306C14.1375 6.08242 13.4235 5.98532 12.7375 6.15871C12.0515 6.3321 11.4495 6.7829 11.0995 7.38629L7.36145 13.7877C7.00445 14.3981 6.91345 15.1055 7.10245 15.7852C7.29145 16.4648 7.73245 17.0335 8.34145 17.3734L11.7995 19.35C11.7365 19.9534 11.7015 20.5568 11.7015 21.174C11.7015 21.7913 11.7365 22.4016 11.7995 22.9981L8.32745 24.9747C7.05345 25.7168 6.62645 27.2911 7.35445 28.5742L11.0855 34.9618C11.8205 36.2171 13.4445 36.654 14.7045 35.9327L18.1765 33.9423C19.1565 34.6705 20.2204 35.2808 21.3614 35.7663V39.7265C21.3614 41.176 22.5515 42.3619 24.0215 42.3619H31.4624C32.9254 42.3619 34.1224 41.1829 34.1224 39.7265V35.7663C35.2634 35.2739 36.3274 34.6636 37.3074 33.9423L40.7794 35.9327C42.0394 36.654 43.6634 36.224 44.3984 34.9618L48.1364 28.5603C48.8574 27.2911 48.4304 25.7168 47.1494 24.9677ZM46.3094 27.5339L42.5784 33.9215C42.4314 34.1781 42.0814 34.2752 41.8294 34.1295L37.7414 31.7923C37.3634 31.5773 36.8875 31.6119 36.5515 31.8894C35.4105 32.8187 34.1084 33.5677 32.6944 34.1018C32.2884 34.2544 32.0154 34.6427 32.0154 35.0727V39.7334C32.0154 40.0316 31.7634 40.2882 31.4554 40.2882H24.0145C23.7135 40.2882 23.4545 40.0386 23.4545 39.7334V35.0727C23.4545 34.6427 23.1885 34.2544 22.7755 34.1018C21.3615 33.5677 20.0665 32.8256 18.9185 31.8894C18.7295 31.7298 18.4915 31.6536 18.2535 31.6536C18.0715 31.6536 17.8895 31.7021 17.7285 31.7923L13.6405 34.1295C13.3885 34.2752 13.0385 34.1711 12.8915 33.9215L9.16745 27.5408C9.00645 27.2634 9.10445 26.9305 9.37045 26.771L13.4375 24.4476C13.8155 24.2326 14.0185 23.8095 13.9485 23.3865C13.8365 22.6721 13.7805 21.93 13.7805 21.1671C13.7805 20.4042 13.8365 19.6829 13.9485 18.9408C14.0115 18.5177 13.8085 18.1016 13.4305 17.8866L9.35645 15.5632C9.18845 15.4661 9.12545 15.3205 9.10445 15.2373C9.08345 15.154 9.05545 14.9945 9.15345 14.8281L12.8845 8.41968C12.9545 8.29484 13.0805 8.20468 13.2275 8.16306C13.3045 8.14226 13.4655 8.12145 13.6335 8.22548L17.7215 10.5489C18.0995 10.7639 18.5755 10.7223 18.9114 10.4518C20.0524 9.52242 21.3545 8.77339 22.7685 8.23936C23.1745 8.08677 23.4475 7.69839 23.4475 7.26839V2.61468C23.4475 2.32339 23.6995 2.08065 24.0075 2.08065H31.4484C31.7564 2.08065 32.0084 2.31645 32.0084 2.61468V7.27532C32.0084 7.70532 32.2744 8.09371 32.6874 8.24629C34.1014 8.78032 35.3964 9.52242 36.5444 10.4587C36.8804 10.7361 37.3564 10.7708 37.7344 10.5558L41.8434 8.22548C41.9974 8.13532 42.1514 8.15613 42.2284 8.17694C42.3754 8.21161 42.5014 8.30871 42.5714 8.42661L46.3024 14.835C46.4004 15.0015 46.3725 15.161 46.3515 15.2442C46.3305 15.3274 46.2674 15.4731 46.0924 15.5771L42.0254 17.8935C41.6474 18.1085 41.4444 18.5247 41.5074 18.9477C41.6194 19.6898 41.6754 20.4181 41.6754 21.174C41.6754 21.93 41.6194 22.679 41.5074 23.3934C41.4444 23.8165 41.6474 24.2395 42.0184 24.4545L46.0784 26.771C46.3584 26.9374 46.4494 27.2703 46.2954 27.5339H46.3094Z" fill="black"/>
<path d="M43 21H51" stroke="black" stroke-width="2" stroke-linecap="round" stroke-linejoin="round"/>
<path d="M46 31L48 35H51" stroke="black" stroke-width="2" stroke-linecap="round" stroke-linejoin="round"/>
<path d="M46 12L48 8H51" stroke="black" stroke-width="2" stroke-linecap="round" stroke-linejoin="round"/>
<path d="M10 31L8 35H5" stroke="black" stroke-width="2" stroke-linecap="round" stroke-linejoin="round"/>
<path d="M10 11L8 7H5" stroke="black" stroke-width="2" stroke-linecap="round" stroke-linejoin="round"/>
<path d="M5 21H12" stroke="black" stroke-width="2" stroke-linecap="round" stroke-linejoin="round"/>
<circle cx="53" cy="21" r="2" stroke="black" stroke-width="2"/>
<circle cx="53" cy="35" r="2" stroke="black" stroke-width="2"/>
<circle cx="53" cy="8" r="2" stroke="black" stroke-width="2"/>
<circle cx="3" cy="35" r="2" stroke="black" stroke-width="2"/>
<circle cx="3" cy="7" r="2" stroke="black" stroke-width="2"/>
<circle cx="3" cy="21" r="2" stroke="black" stroke-width="2"/>
<path d="M19.2712 26.25C18.4625 24.8529 18 23.2302 18 21.5C18 16.253 22.253 12 27.5 12C32.747 12 37 16.253 37 21.5C37 26.747 32.747 31 27.5 31C25.3536 31 23.3728 30.2881 21.7822 29.0869" stroke="black" stroke-width="2" stroke-linecap="round"/>
</svg>
