<svg fill="none" height="64" viewBox="0 0 64 64" width="64" xmlns="http://www.w3.org/2000/svg"><g stroke="#000" stroke-width="2"><path d="m55 40.9993c-1.6713-1.2554-3.7488-1.9993-6-1.9993 0-8.8366-7.1634-16-16-16-7.4591 0-13.726 5.1042-15.4986 12.0103-.1663-.0068-.3334-.0103-.5014-.0103-6.6274 0-12 5.3726-12 12s5.3726 12 12 12h32c5.5228 0 10-4.4772 10-10 0-1.8214-.487-3.5291-1.3378-5" stroke-linecap="round" stroke-linejoin="round"/><path d="m32 23v-10" stroke-linecap="round"/><circle cx="32" cy="11" r="2"/><path d="m22 27v-10m0-8v4" stroke-linecap="round"/><circle cx="22" cy="7" r="2"/><path d="m42 25v-16" stroke-linecap="round"/><circle cx="42" cy="7" r="2"/><path d="m16 35v-6l-4-4v-8" stroke-linecap="round" stroke-linejoin="round"/><circle cx="12" cy="15" r="2"/><path d="m48 33v-4l4-4v-8" stroke-linecap="round" stroke-linejoin="round"/><circle cx="52" cy="15" r="2"/><rect fill="#fff" height="16" rx="2" width="16" x="24" y="35"/></g><path d="m27 40c0-1.1046.8954-2 2-2h6c1.1046 0 2 .8954 2 2v3.1716c0 .5304-.2107 1.0391-.5858 1.4142l-2.8284 2.8284c-.3751.3751-.8838.5858-1.4142.5858h-3.1716c-1.1046 0-2-.8954-2-2z" fill="#000"/><path d="m32 35v-2" stroke="#000" stroke-linecap="round" stroke-width="2"/><path d="m28 35v-2" stroke="#000" stroke-linecap="round" stroke-width="2"/><path d="m36 35v-2" stroke="#000" stroke-linecap="round" stroke-width="2"/><path d="m32 53v-2" stroke="#000" stroke-linecap="round" stroke-width="2"/><path d="m28 53v-2" stroke="#000" stroke-linecap="round" stroke-width="2"/><path d="m36 53v-2" stroke="#000" stroke-linecap="round" stroke-width="2"/><path d="m24 43h-2" stroke="#000" stroke-linecap="round" stroke-width="2"/><path d="m24 47h-2" stroke="#000" stroke-linecap="round" stroke-width="2"/><path d="m24 39h-2" stroke="#000" stroke-linecap="round" stroke-width="2"/><path d="m42 43h-2" stroke="#000" stroke-linecap="round" stroke-width="2"/><path d="m42 47h-2" stroke="#000" stroke-linecap="round" stroke-width="2"/><path d="m42 39h-2" stroke="#000" stroke-linecap="round" stroke-width="2"/></svg>