<svg width="64" height="64" viewBox="0 0 64 64" fill="none" xmlns="http://www.w3.org/2000/svg">
<path fill-rule="evenodd" clip-rule="evenodd" d="M32 15C33.6569 15 35 13.6569 35 12C35 10.3431 33.6569 9 32 9C30.3431 9 29 10.3431 29 12C29 13.6569 30.3431 15 32 15Z" fill="white"/>
<path d="M44.0037 23C44.6455 21.4608 45 19.7718 45 18C45 10.8203 39.1797 5 32 5C24.8203 5 19 10.8203 19 18C19 23.7841 22.7775 28.6859 28 30.373V55L32 59L37 55V51H34V48H37V42H34V39L37 37V30.0037C38.8219 29.2439 40.4339 28.0814 41.7248 26.6274M35 12C35 13.6569 33.6569 15 32 15C30.3431 15 29 13.6569 29 12C29 10.3431 30.3431 9 32 9C33.6569 9 35 10.3431 35 12Z" stroke="black" stroke-width="2" stroke-linecap="round" stroke-linejoin="round"/>
<path d="M29 25H35" stroke="black" stroke-width="2" stroke-linecap="round" stroke-linejoin="round"/>
<path d="M31 31V51" stroke="black" stroke-width="2" stroke-linecap="round" stroke-linejoin="round"/>
<path d="M41 45H49" stroke="black" stroke-width="2" stroke-linecap="round" stroke-linejoin="round"/>
<path d="M37 53H43L45 57H49" stroke="black" stroke-width="2" stroke-linecap="round" stroke-linejoin="round"/>
<path d="M37 37H43L45 33H49" stroke="black" stroke-width="2" stroke-linecap="round" stroke-linejoin="round"/>
<path d="M28 53H22L20 57H16" stroke="black" stroke-width="2" stroke-linecap="round" stroke-linejoin="round"/>
<path d="M28 37H22L20 33H16" stroke="black" stroke-width="2" stroke-linecap="round" stroke-linejoin="round"/>
<path d="M16 45H24" stroke="black" stroke-width="2" stroke-linecap="round" stroke-linejoin="round"/>
<circle cx="51" cy="45" r="2" stroke="black" stroke-width="2"/>
<circle cx="51" cy="57" r="2" stroke="black" stroke-width="2"/>
<circle cx="51" cy="33" r="2" stroke="black" stroke-width="2"/>
<circle cx="14" cy="57" r="2" stroke="black" stroke-width="2"/>
<circle cx="14" cy="33" r="2" stroke="black" stroke-width="2"/>
<circle cx="14" cy="45" r="2" stroke="black" stroke-width="2"/>
</svg>
