<svg fill="none" height="64" viewBox="0 0 64 64" width="64" xmlns="http://www.w3.org/2000/svg"><path clip-rule="evenodd" d="m32 15c1.6569 0 3-1.3431 3-3s-1.3431-3-3-3-3 1.3431-3 3 1.3431 3 3 3z" fill="#fff" fill-rule="evenodd"/><g stroke="#000" stroke-width="2"><path d="m44.0037 23c.6418-1.5392.9963-3.2282.9963-5 0-7.1797-5.8203-13-13-13s-13 5.8203-13 13c0 5.7841 3.7775 10.6859 9 12.373v24.627l4 4 5-4v-4h-3v-3h3v-6h-3v-3l3-2v-6.9963c1.8219-.7598 3.4339-1.9223 4.7248-3.3763m-6.7248-14.6274c0 1.6569-1.3431 3-3 3s-3-1.3431-3-3 1.3431-3 3-3 3 1.3431 3 3z" stroke-linecap="round" stroke-linejoin="round"/><path d="m29 25h6" stroke-linecap="round" stroke-linejoin="round"/><path d="m31 31v20" stroke-linecap="round" stroke-linejoin="round"/><path d="m41 45h8" stroke-linecap="round" stroke-linejoin="round"/><path d="m37 53h6l2 4h4" stroke-linecap="round" stroke-linejoin="round"/><path d="m37 37h6l2-4h4" stroke-linecap="round" stroke-linejoin="round"/><path d="m28 53h-6l-2 4h-4" stroke-linecap="round" stroke-linejoin="round"/><path d="m28 37h-6l-2-4h-4" stroke-linecap="round" stroke-linejoin="round"/><path d="m16 45h8" stroke-linecap="round" stroke-linejoin="round"/><circle cx="51" cy="45" r="2"/><circle cx="51" cy="57" r="2"/><circle cx="51" cy="33" r="2"/><circle cx="14" cy="57" r="2"/><circle cx="14" cy="33" r="2"/><circle cx="14" cy="45" r="2"/></g></svg>