<svg fill="none" height="64" viewBox="0 0 64 64" width="64" xmlns="http://www.w3.org/2000/svg" xmlns:xlink="http://www.w3.org/1999/xlink"><clipPath id="a"><path d="m39 21h17v24h-17z"/></clipPath><g stroke="#000" stroke-linejoin="round" stroke-width="2"><path d="m23 29h18v8h-18z" fill="#fff"/><path d="m23 13h18v8h-18z" fill="#fff"/><path d="m14 21h18v8h-18z" fill="#fff"/><path d="m24 5h-10v8h18v-8h-4" stroke-linecap="round"/><path d="m14 37h18v8h-18z" fill="#fff"/><path d="m32 21h18v8h-18z" fill="#fff"/><path d="m32 5h18v8h-18z" fill="#fff"/><path d="m59 31v-2h-18v8h18v-2" stroke-linecap="round"/><path d="m5 29h18v8h-18z" fill="#fff"/><path d="m32 37h18v8h-18z" fill="#fff"/><path d="m41 13h18v8h-18z" fill="#fff"/><path d="m5 13h18v8h-18z" fill="#fff"/><path d="m5 21h9v8h-9z" fill="#fff"/><path d="m5 5h9v8h-9z" fill="#fff"/><path d="m5 37h9v8h-9z" fill="#fff"/><path d="m50 21h9v8h-9z" fill="#fff"/><path d="m50 5h9v8h-9z" fill="#fff"/><path d="m50 37h9v8h-9z" fill="#fff"/></g><g clip-path="url(#a)"><path d="m15 29c8 0 12-8 12-8h16s4 8 12 8c0 26-20 32-20 32s-20-6-20-32z" fill="#000" stroke="#000" stroke-linejoin="round" stroke-width="2"/></g><path d="m12 27c8 0 12-8 12-8h16s4 8 12 8c0 26-20 32-20 32s-20-6-20-32z" fill="#fff" stroke="#000" stroke-linejoin="round" stroke-width="2"/><path d="m26 38 4 4 8-10" stroke="#000" stroke-linecap="round" stroke-linejoin="round" stroke-width="2"/></svg>