<svg fill="none" height="64" viewBox="0 0 64 64" width="64" xmlns="http://www.w3.org/2000/svg" xmlns:xlink="http://www.w3.org/1999/xlink"><clipPath id="a"><path d="m32 27h20v14h-20z"/></clipPath><path clip-rule="evenodd" d="m59 31c0-5.5228-4.4772-10-10-10 0-8.8366-7.1634-16-16-16-7.4591 0-13.726 5.1042-15.4986 12.0103-.1663-.0068-.3334-.0103-.5014-.0103-6.6274 0-12 5.3726-12 12s5.3726 12 12 12h32c5.5228 0 10-4.4772 10-10z" fill="#fff" fill-rule="evenodd"/><path d="m49 21h-1c0 .5523.4477 1 1 1zm-31.4986-3.9897-.041.9991c.4714.0194.8923-.2934 1.0096-.7505zm31.4986 4.9897c4.9706 0 9 4.0294 9 9h2c0-6.0751-4.9249-11-11-11zm-16-16c8.2843 0 15 6.7157 15 15h2c0-9.3888-7.6112-17-17-17zm-14.53 11.2589c1.6619-6.4747 7.5385-11.2589 14.53-11.2589v-2c-7.9266 0-14.5839 5.42412-16.4672 12.7617zm-1.47.7411c.1543 0 .3077.0032.4604.0094l.0821-1.9983c-.18-.0074-.3608-.0111-.5425-.0111zm-11 11c0-6.0751 4.9249-11 11-11v-2c-7.1797 0-13 5.8203-13 13zm11 11c-6.0751 0-11-4.9249-11-11h-2c0 7.1797 5.8203 13 13 13zm32 0h-32v2h32zm9-9c0 4.9706-4.0294 9-9 9v2c6.0751 0 11-4.9249 11-11z" fill="#000"/><g clip-path="url(#a)"><circle cx="35" cy="45" fill="#000" r="16" stroke="#000" stroke-width="2"/></g><circle cx="32" cy="43" fill="#fff" r="16"/><path d="m21.9304 30.5629c2.1115-1.7128 4.6883-2.9098 7.5667-3.3657 8.7278-1.3823 16.9236 4.5723 18.306 13.3001 1.3823 8.7278-4.5723 16.9236-13.3001 18.306-8.7278 1.3823-16.9236-4.5723-18.306-13.3001-.6762-4.2695.4034-8.4117 2.7044-11.6913" stroke="#000" stroke-linecap="round" stroke-width="2"/><circle cx="31.5" cy="43.5" fill="#000" r="1.73438"/><path clip-rule="evenodd" d="m37.3206 36.5752c.1614-.2279.1355-.5406-.0735-.7258-1.5301-1.3549-3.5424-2.1775-5.7469-2.1775s-4.2169.8226-5.747 2.1775c-.209.1852-.2349.4979-.0735.7258.2071.2923.6287.3226.8994.0879 1.3185-1.1432 3.039-1.835 4.9211-1.835 1.882 0 3.6025.6918 4.921 1.835.2707.2347.6923.2044.8994-.0879zm-2.0135 2.8425c.1433-.2022.1368-.4771-.0339-.6568-.948-.998-2.2878-1.6203-3.773-1.6203s-2.8251.6223-3.7731 1.6203c-.1706.1797-.1771.4546-.0339.6568.223.3148.6952.3102.9703.0398.7303-.7178 1.7318-1.1606 2.8367-1.1606s2.1063.4428 2.8366 1.1606c.2752.2704.7473.275.9703-.0398z" fill="#000" fill-rule="evenodd"/><path clip-rule="evenodd" d="m37.3206 50.4248c.1614.2279.1355.5406-.0735.7258-1.5301 1.3549-3.5424 2.1775-5.7469 2.1775s-4.2169-.8226-5.747-2.1775c-.209-.1852-.2349-.4979-.0735-.7258.2071-.2923.6287-.3226.8994-.0879 1.3185 1.1432 3.039 1.835 4.9211 1.835 1.882 0 3.6025-.6918 4.921-1.835.2707-.2347.6923-.2044.8994.0879zm-2.0135-2.8425c.1433.2022.1368.4771-.0339.6568-.948.998-2.2878 1.6203-3.773 1.6203s-2.8251-.6223-3.7731-1.6203c-.1706-.1797-.1771-.4546-.0339-.6568.223-.3148.6952-.3102.9703-.0398.7303.7178 1.7318 1.1606 2.8367 1.1606s2.1063-.4428 2.8366-1.1606c.2752-.2704.7473-.275.9703.0398z" fill="#000" fill-rule="evenodd"/><g stroke="#000" stroke-linecap="round" stroke-linejoin="round" stroke-width="1.15625"><path d="m25.7188 41.1875v4.0469h2.3124"/><path d="m34.9688 45.2344v-1.7344m0 0v-2.3125h1.7343c.6386 0 1.1563.5177 1.1563 1.1563 0 .6385-.5177 1.1562-1.1563 1.1562h-.289m-1.4453 0h1.4453m0 0 .8671 1.7344"/><path d="m40.1719 44.0781h2.3125"/><path d="m39.5938 45.2344 1.7343-4.0469 1.7344 4.0469"/></g></svg>