<svg fill="none" height="56" viewBox="0 0 56 56" width="56" xmlns="http://www.w3.org/2000/svg"><path d="m35 1h-28c-1.10457 0-2 .89543-2 2v8c0 1.1046.89543 2 2 2h42c1.1046 0 2-.8954 2-2v-8c0-1.10457-.8954-2-2-2h-10" stroke="#000" stroke-linecap="round" stroke-width="2"/><circle cx="10" cy="7" fill="#000" r="2"/><g stroke="#000" stroke-width="2"><path d="m17 5h14" stroke-linecap="round"/><path d="m17 9h14" stroke-linecap="round"/><path d="m47 5v4" stroke-linecap="round"/><path d="m43 5v4" stroke-linecap="round"/><path d="m39 5v4" stroke-linecap="round"/><path d="m35 5v4" stroke-linecap="round"/><path d="m28 13v16m0 0h-18c-1.10457 0-2 .8954-2 2v10m20-12h18c1.1046 0 2 .8954 2 2v10m-20-12v12" stroke-linecap="round"/><path d="m21 51v2c0 1.1046.8954 2 2 2h10c1.1046 0 2-.8954 2-2v-10c0-1.1046-.8954-2-2-2h-10c-1.1046 0-2 .8954-2 2v4" stroke-linecap="round"/><path d="m28 45h3" stroke-linecap="round"/><path d="m28 49h3" stroke-linecap="round"/><path d="m41 43c0-1.1046.8954-2 2-2h10c1.1046 0 2 .8954 2 2v10c0 1.1046-.8954 2-2 2h-10c-1.1046 0-2-.8954-2-2z" fill="#fff"/><path d="m48 45h3" stroke-linecap="round"/><path d="m48 49h3" stroke-linecap="round"/><path d="m1 43c0-1.1046.89543-2 2-2h10c1.1046 0 2 .8954 2 2v10c0 1.1046-.8954 2-2 2h-10c-1.10457 0-2-.8954-2-2z" fill="#fff"/><path d="m8 45h3" stroke-linecap="round"/><path d="m8 49h3" stroke-linecap="round"/><circle cx="28" cy="29" fill="#fff" r="3"/></g></svg>