<svg width="56" height="56" viewBox="0 0 56 56" fill="none" xmlns="http://www.w3.org/2000/svg">
<path d="M35 1H7C5.89543 1 5 1.89543 5 3V11C5 12.1046 5.89543 13 7 13H49C50.1046 13 51 12.1046 51 11V3C51 1.89543 50.1046 1 49 1H39" stroke="black" stroke-width="2" stroke-linecap="round"/>
<circle cx="10" cy="7" r="2" fill="black"/>
<path d="M17 5H31" stroke="black" stroke-width="2" stroke-linecap="round"/>
<path d="M17 9H31" stroke="black" stroke-width="2" stroke-linecap="round"/>
<path d="M47 5V9" stroke="black" stroke-width="2" stroke-linecap="round"/>
<path d="M43 5V9" stroke="black" stroke-width="2" stroke-linecap="round"/>
<path d="M39 5V9" stroke="black" stroke-width="2" stroke-linecap="round"/>
<path d="M35 5V9" stroke="black" stroke-width="2" stroke-linecap="round"/>
<path d="M28 13V29M28 29H10C8.89543 29 8 29.8954 8 31V41M28 29H46C47.1046 29 48 29.8954 48 31V41M28 29V41" stroke="black" stroke-width="2" stroke-linecap="round"/>
<path d="M21 51V53C21 54.1046 21.8954 55 23 55H33C34.1046 55 35 54.1046 35 53V43C35 41.8954 34.1046 41 33 41H23C21.8954 41 21 41.8954 21 43V47" stroke="black" stroke-width="2" stroke-linecap="round"/>
<path d="M28 45H31" stroke="black" stroke-width="2" stroke-linecap="round"/>
<path d="M28 49H31" stroke="black" stroke-width="2" stroke-linecap="round"/>
<path d="M41 43C41 41.8954 41.8954 41 43 41H53C54.1046 41 55 41.8954 55 43V53C55 54.1046 54.1046 55 53 55H43C41.8954 55 41 54.1046 41 53V43Z" fill="white" stroke="black" stroke-width="2"/>
<path d="M48 45H51" stroke="black" stroke-width="2" stroke-linecap="round"/>
<path d="M48 49H51" stroke="black" stroke-width="2" stroke-linecap="round"/>
<path d="M1 43C1 41.8954 1.89543 41 3 41H13C14.1046 41 15 41.8954 15 43V53C15 54.1046 14.1046 55 13 55H3C1.89543 55 1 54.1046 1 53V43Z" fill="white" stroke="black" stroke-width="2"/>
<path d="M8 45H11" stroke="black" stroke-width="2" stroke-linecap="round"/>
<path d="M8 49H11" stroke="black" stroke-width="2" stroke-linecap="round"/>
<circle cx="28" cy="29" r="3" fill="white" stroke="black" stroke-width="2"/>
</svg>
