<svg fill="none" height="64" viewBox="0 0 64 64" width="64" xmlns="http://www.w3.org/2000/svg"><path d="m5 31v-24c0-1.10457.89543-2 2-2h50c1.1046 0 2 .89543 2 2v34c0 1.1046-.8954 2-2 2h-50c-1.10457 0-2-.8954-2-2v-6" stroke="#000" stroke-linecap="round" stroke-width="2"/><path d="m40 43h-16v16h16z" stroke="#000" stroke-linecap="round" stroke-width="2"/><path d="m16 59h32" stroke="#000" stroke-linecap="round" stroke-width="2"/><path d="m24 43h16v6h-16z" fill="#000"/><circle cx="32" cy="49" fill="#000" r="4"/><g stroke="#000" stroke-width="2"><path d="m24 26 8 4v10l-8-4z" fill="#fff" stroke-linejoin="round"/><path d="m32 30 8-4v10l-8 4z" fill="#fff" stroke-linejoin="round"/><path d="m32 22 8 4-8 4-8-4z" fill="#fff" stroke-linejoin="round"/><path d="m16 12 8 4v10l-8-4z" fill="#fff" stroke-linejoin="round"/><path d="m24 16 8-4v10l-8 4z" fill="#fff" stroke-linejoin="round"/><path d="m24 8 8 4-8 4-8-4z" fill="#fff" stroke-linejoin="round"/><path d="m32 12 8 4v10l-8-4z" fill="#fff" stroke-linejoin="round"/><path d="m48 19v3l-8 4v-10l8-4v3" stroke-linecap="round" stroke-linejoin="round"/><path d="m40 8 8 4-8 4-8-4z" fill="#fff" stroke-linejoin="round"/></g></svg>