<svg fill="none" height="64" viewBox="0 0 64 64" width="64" xmlns="http://www.w3.org/2000/svg"><path d="m47 39v-30c0-2.20914-1.7909-4-4-4h-22c-2.2091 0-4 1.79086-4 4v46c0 2.2091 1.7909 4 4 4h22c2.2091 0 4-1.7909 4-4v-12" stroke="#000" stroke-linecap="round" stroke-width="2"/><path d="m29 9h6" stroke="#000" stroke-linecap="round" stroke-width="2"/><g fill="#000"><path d="m47 13h1c.5523 0 1 .4477 1 1v6c0 .5523-.4477 1-1 1h-1z"/><path d="m15 18c0-.5523.4477-1 1-1h1v6h-1c-.5523 0-1-.4477-1-1z"/><path d="m15 26c0-.5523.4477-1 1-1h1v6h-1c-.5523 0-1-.4477-1-1z"/></g><path d="m26 33 4 4 8-10" stroke="#000" stroke-linecap="round" stroke-linejoin="round" stroke-width="2"/></svg>