<svg fill="none" height="64" viewBox="0 0 64 64" width="64" xmlns="http://www.w3.org/2000/svg"><path d="m18 55.0914c4.0822 2.4803 8.8743 3.9086 14 3.9086 14.9117 0 27-12.0883 27-27s-12.0883-27-27-27-27 12.0883-27 27c0 8.3452 3.78608 15.8062 9.7343 20.7589" stroke="#000" stroke-linecap="round" stroke-width="2"/><g fill="#000"><circle cx="32" cy="32" r="3" transform="matrix(0 1 -1 0 64 0)"/><path clip-rule="evenodd" d="m43.978 42.068c.3942.2792.9352.2345 1.2554-.1271 2.3437-2.6466 3.7666-6.1274 3.7666-9.9406s-1.4229-7.2941-3.7666-9.9407c-.3202-.3615-.8612-.4063-1.2554-.1271-.5056.3582-.558 1.0875-.1521 1.5556 1.9775 2.2807 3.1741 5.2567 3.1741 8.5122s-1.1966 6.2315-3.1741 8.5121c-.4059.4682-.3535 1.1975.1521 1.5556zm-4.9168-3.4827c.3498.2477.8254.2365 1.1361-.0587 1.7264-1.6398 2.8027-3.9574 2.8027-6.5263 0-2.569-1.0763-4.8866-2.8027-6.5264-.3107-.2952-.7863-.3064-1.1361-.0587-.5445.3858-.5365 1.2025-.0687 1.6784 1.2416 1.2632 2.0075 2.9955 2.0075 4.9067 0 1.9111-.7659 3.6434-2.0075 4.9066-.4678.4759-.4758 1.2927.0687 1.6784z" fill-rule="evenodd"/><path clip-rule="evenodd" d="m20.022 42.068c-.3942.2792-.9352.2345-1.2554-.1271-2.3437-2.6466-3.7666-6.1274-3.7666-9.9406s1.4229-7.2941 3.7666-9.9407c.3202-.3615.8612-.4063 1.2554-.1271.5056.3582.558 1.0875.1521 1.5556-1.9775 2.2807-3.1741 5.2567-3.1741 8.5122s1.1966 6.2315 3.1741 8.5121c.4059.4682.3535 1.1975-.1521 1.5556zm4.9168-3.4827c-.3498.2477-.8254.2365-1.1361-.0587-1.7264-1.6398-2.8027-3.9574-2.8027-6.5263 0-2.569 1.0763-4.8866 2.8027-6.5264.3107-.2952.7863-.3064 1.1361-.0587.5445.3858.5365 1.2025.0687 1.6784-1.2416 1.2632-2.0075 2.9955-2.0075 4.9067 0 1.9111.7659 3.6434 2.0075 4.9066.4678.4759.4758 1.2927-.0687 1.6784z" fill-rule="evenodd"/></g></svg>