<svg fill="none" height="56" viewBox="0 0 56 56" width="56" xmlns="http://www.w3.org/2000/svg"><path d="m3 47h50v4c0 1.1046-.8954 2-2 2h-46c-1.10457 0-2-.8954-2-2z" fill="#ababab" stroke="#202028" stroke-linejoin="round"/><path d="m1 38c0-1.1046.89543-2 2-2h35 15c1.1046 0 2 .8954 2 2v8c0 1.1046-.8954 2-2 2h-15-35c-1.10457 0-2-.8954-2-2z" fill="#fff"/><path d="m38 36h-35c-1.10457 0-2 .8954-2 2v8c0 1.1046.89543 2 2 2h35m0-12h15c1.1046 0 2 .8954 2 2v8c0 1.1046-.8954 2-2 2h-15m0-12v12" stroke="#202028"/><g fill="#202028"><path d="m3 48h50v3h-50z"/><path d="m6 53h8v2c0 .5523-.4477 1-1 1h-6c-.55228 0-1-.4477-1-1z"/><path d="m42 53h8v2c0 .5523-.4477 1-1 1h-6c-.5523 0-1-.4477-1-1z"/><path d="m16 40c0-.5523.4477-1 1-1h6c.5523 0 1 .4477 1 1v2c0 .5523-.4477 1-1 1-.5523 0-1 .4477-1 1 0 .5523-.4477 1-1 1h-2c-.5523 0-1-.4477-1-1 0-.5523-.4477-1-1-1-.5523 0-1-.4477-1-1z"/><path d="m26 40c0-.5523.4477-1 1-1h6c.5523 0 1 .4477 1 1v2c0 .5523-.4477 1-1 1-.5523 0-1 .4477-1 1 0 .5523-.4477 1-1 1h-2c-.5523 0-1-.4477-1-1 0-.5523-.4477-1-1-1-.5523 0-1-.4477-1-1z"/><path d="m42 40c0-.5523.4477-1 1-1h6c.5523 0 1 .4477 1 1v2c0 .5523-.4477 1-1 1-.5523 0-1 .4477-1 1 0 .5523-.4477 1-1 1h-2c-.5523 0-1-.4477-1-1 0-.5523-.4477-1-1-1-.5523 0-1-.4477-1-1z"/></g><path d="m7 1h6v8h-6z" fill="#ababab" stroke="#202028" stroke-linejoin="round"/><path d="m7 9h6v33c0 1.1046-.8954 2-2 2h-2c-1.10457 0-2-.8954-2-2z" fill="#fff" stroke="#202028"/></svg>