<svg fill="none" height="64" viewBox="0 0 64 64" width="64" xmlns="http://www.w3.org/2000/svg"><path clip-rule="evenodd" d="m57.3493 16.0475c.4387.4129 1.1417.3673 1.5081-.111.3054-.3988.2673-.9636-.0981-1.3083-6.9837-6.58918-16.3997-10.6282-26.7591-10.6282-10.3593 0-19.7753 4.03902-26.75903 10.6282-.36537.3447-.40352.9095-.09807 1.3083.36634.4783 1.06934.5239 1.50812.111 6.62178-6.23016 15.53958-10.0475 25.34898-10.0475 9.8095 0 18.7273 3.81734 25.3491 10.0475zm-2.1615 4.6799c.2998-.3914.2689-.9445-.083-1.2897-5.9528-5.8378-14.1083-9.4377-23.1046-9.4377-8.9962 0-17.1517 3.5999-23.10449 9.4377-.35198.3452-.3828.8983-.08303 1.2897.37205.4857 1.08949.5229 1.52712.0954 5.5882-5.4587 13.2315-8.8228 21.6604-8.8228 8.429 0 16.0723 3.3641 21.6604 8.8228.4377.4275 1.1552.3903 1.5272-.0954zm-3.6793 4.8035c.2914-.3805.2707-.9164-.0618-1.2616-4.9114-5.0978-11.8086-8.2693-19.4465-8.2693-7.6378 0-14.535 3.1715-19.4464 8.2693-.3325.3452-.3533.8811-.0618 1.2616.3804.4967 1.1192.5209 1.5546.0717 4.5442-4.6885 10.9086-7.6026 17.9536-7.6026 7.0451 0 13.4095 2.9141 17.9537 7.6026.4353.4492 1.1742.425 1.5546-.0717zm-3.6981 4.828c.2781-.3631.2722-.8713-.0296-1.2148-3.8487-4.3798-9.4918-7.1441-15.7806-7.1441-6.2887 0-11.9318 2.7643-15.7805 7.1441-.3019.3435-.3077.8517-.0297 1.2148.3938.5141 1.1676.5155 1.5976.0312 3.4805-3.92 8.5581-6.3901 14.2126-6.3901 5.6546 0 10.7322 2.4701 14.2127 6.3901.4299.4843 1.2038.4829 1.5975-.0312zm-3.7416 4.8849c.2527-.3299.2701-.786.024-1.1208-2.7305-3.7132-7.1301-6.123-12.0926-6.123-4.9624 0-9.3621 2.4098-12.0925 6.123-.2462.3348-.2288.7909.0239 1.1208.4186.5464 1.2607.4971 1.6745-.0529 2.3722-3.1524 6.1451-5.1909 10.3941-5.1909 4.2491 0 8.022 2.0385 10.3941 5.1909.4139.55 1.256.5993 1.6745.0529z" fill="#000" fill-rule="evenodd"/><circle cx="32.0001" cy="43" fill="#fff" r="8" stroke="#000" stroke-width="2"/><path d="m24.0001 40h16v3h-16z" fill="#000"/><path d="m16.0001 47c0-2.2091 1.7909-4 4-4h24c2.2092 0 4 1.7909 4 4v8c0 2.2091-1.7908 4-4 4h-24c-2.2091 0-4-1.7909-4-4z" fill="#fff"/><path d="m28.0001 59h16c2.2092 0 4-1.7909 4-4v-8c0-2.2091-1.7908-4-4-4h-24c-2.2091 0-4 1.7909-4 4v8c0 2.2091 1.7909 4 4 4h4" stroke="#000" stroke-linecap="round" stroke-width="2"/><path d="m16.0001 49h28" stroke="#000" stroke-linecap="round" stroke-width="2"/><g fill="#000"><circle cx="23.0001" cy="54" r="2"/><circle cx="41.0001" cy="54" r="2"/></g></svg>