<svg fill="none" height="64" viewBox="0 0 64 64" width="64" xmlns="http://www.w3.org/2000/svg"><path clip-rule="evenodd" d="m59 31c0-5.5228-4.4772-10-10-10 0-8.8366-7.1634-16-16-16-7.4591 0-13.726 5.1042-15.4986 12.0103-.1663-.0068-.3334-.0103-.5014-.0103-6.6274 0-12 5.3726-12 12s5.3726 12 12 12h32c5.5228 0 10-4.4772 10-10z" fill="#fff" fill-rule="evenodd"/><path d="m49 21h-1c0 .5523.4477 1 1 1zm-31.4986-3.9897-.041.9991c.4714.0194.8923-.2934 1.0096-.7505zm31.4986 4.9897c4.9706 0 9 4.0294 9 9h2c0-6.0751-4.9249-11-11-11zm-16-16c8.2843 0 15 6.7157 15 15h2c0-9.3888-7.6112-17-17-17zm-14.53 11.2589c1.6619-6.4747 7.5385-11.2589 14.53-11.2589v-2c-7.9266 0-14.5839 5.42412-16.4672 12.7617zm-1.47.7411c.1543 0 .3077.0032.4604.0094l.0821-1.9983c-.18-.0074-.3608-.0111-.5425-.0111zm-11 11c0-6.0751 4.9249-11 11-11v-2c-7.1797 0-13 5.8203-13 13zm11 11c-6.0751 0-11-4.9249-11-11h-2c0 7.1797 5.8203 13 13 13zm32 0h-32v2h32zm9-9c0 4.9706-4.0294 9-9 9v2c6.0751 0 11-4.9249 11-11z" fill="#000"/><rect fill="#fff" height="12" rx="2" width="40" x="12" y="29"/><path d="m24 29h26c1.1046 0 2 .8954 2 2v8c0 1.1046-.8954 2-2 2h-36c-1.1046 0-2-.8954-2-2v-8c0-1.1046.8954-2 2-2h6" stroke="#000" stroke-linecap="round" stroke-width="2"/><path d="m36 33v4" stroke="#000" stroke-linecap="round" stroke-width="2"/><path d="m40 33v4" stroke="#000" stroke-linecap="round" stroke-width="2"/><path d="m44 33v4" stroke="#000" stroke-linecap="round" stroke-width="2"/><path d="m48 33v4" stroke="#000" stroke-linecap="round" stroke-width="2"/><circle cx="17" cy="35" fill="#000" r="2"/><rect fill="#fff" height="12" rx="2" width="40" x="12" y="45"/><path d="m34 57h-20c-1.1046 0-2-.8954-2-2v-8c0-1.1046.8954-2 2-2h36c1.1046 0 2 .8954 2 2v8c0 1.1046-.8954 2-2 2h-12" stroke="#000" stroke-linecap="round" stroke-width="2"/><path d="m36 49v4" stroke="#000" stroke-linecap="round" stroke-width="2"/><path d="m40 49v4" stroke="#000" stroke-linecap="round" stroke-width="2"/><path d="m44 49v4" stroke="#000" stroke-linecap="round" stroke-width="2"/><path d="m48 49v4" stroke="#000" stroke-linecap="round" stroke-width="2"/><g fill="#000"><circle cx="17" cy="51" r="2"/><path d="m15 41h34v4h-34z"/><path d="m15 57h8v2c0 .5523-.4477 1-1 1h-6c-.5523 0-1-.4477-1-1z"/><path d="m41 57h8v2c0 .5523-.4477 1-1 1h-6c-.5523 0-1-.4477-1-1z"/><path d="m52 31h1c1.1046 0 2 .8954 2 2v6h-3z" stroke="#000" stroke-linejoin="round" stroke-width="2"/></g></svg>