<svg fill="none" height="64" viewBox="0 0 56 64" width="56" xmlns="http://www.w3.org/2000/svg"><g fill="#000"><path d="m28.4804 25.5407c-3.7108 0-6.7235 3.0162-6.7235 6.7271v5.5362c0 .5139.4253.9357.9392.9357.0709 0 .1454-.0071.2162-.0248 4.6537-1.1129 6.8866-1.1519 11.1079-.0071.0815.0213.163.0319.2445.0319.5175 0 .9393-.4218.9393-.9357v-5.5362c0-3.7109-3.0162-6.7271-6.7236-6.7271zm0 1.8749c2.7008 0 4.8486 2.1479 4.8486 4.8522v4.3347c-3.4202-.801-5.9969-.7656-9.6972.0283v-4.3666c0-2.7007 2.1443-4.8486 4.8486-4.8486zm-4.5048 16.6228h-.0106c-.5139 0-.9357.4253-.9357.9393 0 .5139.4218.9357.9357.9357h.0106 9.0522.0106c.5139 0 .9357-.4218.9357-.9357 0-.514-.4218-.9393-.9357-.9393h-.0106zm0 4.7281-.0106-.0035c-.5139 0-.9392.4253-.9392.9392s.4253.9357.9392.9357h.0106 9.0522.0106c.5139 0 .9392-.4218.9392-.9357s-.4253-.9392-.9392-.9392l-.0106.0035z"/><g clip-rule="evenodd" fill-rule="evenodd"><path d="m52.036 14.7164c.007-.0036.0177-.0036.0283-.0036.5139 0 .9357.4253.9357.9393 0 .2516-.1028.4962-.2835.6734l-5.5185 5.5149c-.1772.1843-.4182.2871-.6734.2871-.514 0-.9357-.4253-.9357-.9392 0-.2517.1028-.4962.2835-.6734l5.5185-5.515c.1701-.1772.4005-.2764.6451-.2835z"/><path d="m28.4875 4.95538h.0141c.514 0 .9357.42177.9357.9357v.01418 7.80454.0106c0 .514-.4217.9393-.9357.9393-.5139 0-.9392-.4253-.9392-.9393v-.0106-7.80454c-.0071-.51393.4111-.94279.9251-.94988z"/><path d="m4.93924 14.7128c.25165 0 .4962.1028.66987.2871l5.51849 5.515c.1807.1772.2835.4217.2835.6734 0 .5139-.4217.9357-.9357.9357-.2552 0-.49616-.1028-.67338-.2836l-5.51848-5.5149c-.18076-.1772-.28354-.4218-.28354-.6734 0-.514.42532-.9393.93924-.9393z"/><path d="m17.2061 48.6247v9.7681.0106c0 .5139-.4218.9392-.9357.9392s-.9392-.4253-.9392-.9392v-.0106-8.8289-1.2369-.0107c0-.5175.4253-.9392.9392-.9392s.9357.4217.9357.9392v.0107z"/><path d="m15.3312 42.9823v-10.3494c0-7.2765 5.8906-13.1671 13.1706-13.1671s13.1671 5.8906 13.1671 13.1671v25.76.0142c0 .5139-.4218.9392-.9357.9392s-.9393-.4253-.9393-.9392v-.0142-25.76c0-6.2734-5.0187-11.2921-11.2921-11.2921-6.277 0-11.2957 5.0187-11.2957 11.2921v11.5296.0674c0 .5139-.4218.9392-.9357.9392s-.9392-.4253-.9392-.9392v-.1879z"/></g></g></svg>