<svg fill="none" height="64" viewBox="0 0 64 64" width="64" xmlns="http://www.w3.org/2000/svg" xmlns:xlink="http://www.w3.org/1999/xlink"><clipPath id="a"><path d="m25 27h19v18h-19z"/></clipPath><mask id="b" height="16" maskUnits="userSpaceOnUse" width="32" x="16" y="43"><path d="m48 54c0 4.4183-7.1634 5-16 5s-16-.5817-16-5 7.1634-11 16-11 16 6.5817 16 11z" fill="#fff"/></mask><path d="m5 11h54v32c0 1.1046-.8954 2-2 2h-50c-1.10457 0-2-.8954-2-2z" fill="#fff"/><path d="m5 33v-22h54v32c0 1.1046-.8954 2-2 2h-50c-1.10457 0-2-.8954-2-2v-6" stroke="#000" stroke-linecap="round" stroke-linejoin="round" stroke-width="2"/><path d="m47 5h-40c-1.10457 0-2 .89543-2 2v4h54v-4c0-1.10457-.8954-2-2-2h-6" stroke="#000" stroke-linecap="round" stroke-linejoin="round" stroke-width="2"/><g fill="#000"><circle cx="9" cy="8" r="1"/><circle cx="12" cy="8" r="1"/><circle cx="15" cy="8" r="1"/><rect height="24" rx="1" width="16" x="10" y="16"/><rect height="6" rx="1" width="24" x="30" y="16"/><rect height="14" rx="1" width="24" x="30" y="26"/><g clip-path="url(#a)" stroke="#000" stroke-width="2"><path d="m52 55c0 4.4183-7.1634 5-16 5s-16-.5817-16-5 7.1634-11 16-11 16 6.5817 16 11z"/><circle cx="36" cy="34" r="7"/></g></g><path d="m48 54c0 4.4183-7.1634 5-16 5s-16-.5817-16-5 7.1634-11 16-11 16 6.5817 16 11z" fill="#fff" stroke="#000" stroke-width="2"/><g mask="url(#b)"><ellipse cx="32" cy="43" fill="#000" rx="7" ry="5"/></g><circle cx="32" cy="33" fill="#fff" r="7" stroke="#000" stroke-width="2"/></svg>