<svg width="64" height="64" viewBox="0 0 64 64" fill="none" xmlns="http://www.w3.org/2000/svg">
<path d="M5 11H59V43C59 44.1046 58.1046 45 57 45H7C5.89543 45 5 44.1046 5 43V11Z" fill="white"/>
<path d="M5 33V11H59V43C59 44.1046 58.1046 45 57 45H7C5.89543 45 5 44.1046 5 43V37" stroke="black" stroke-width="2" stroke-linecap="round" stroke-linejoin="round"/>
<path d="M47 5H7C5.89543 5 5 5.89543 5 7V11H59V7C59 5.89543 58.1046 5 57 5H51" stroke="black" stroke-width="2" stroke-linecap="round" stroke-linejoin="round"/>
<circle cx="9" cy="8" r="1" fill="black"/>
<circle cx="12" cy="8" r="1" fill="black"/>
<circle cx="15" cy="8" r="1" fill="black"/>
<rect x="10" y="16" width="16" height="24" rx="1" fill="black"/>
<rect x="30" y="16" width="24" height="6" rx="1" fill="black"/>
<rect x="30" y="26" width="24" height="14" rx="1" fill="black"/>
<path d="M35 29C26.1634 29 19 36.1634 19 45H51C51 36.1634 43.8366 29 35 29Z" fill="black" stroke="black" stroke-width="2"/>
<circle cx="32" cy="43" r="16" fill="white"/>
<path d="M40 56.8595C37.6466 58.2208 34.9143 59 32 59C23.1634 59 16 51.8366 16 43C16 34.1634 23.1634 27 32 27C40.8366 27 48 34.1634 48 43C48 46.6155 46.8008 49.9509 44.7784 52.6302" stroke="black" stroke-width="2" stroke-linecap="round"/>
<path d="M32 37V43H42" stroke="black" stroke-width="2" stroke-linecap="round" stroke-linejoin="round"/>
</svg>
