<svg clip-rule="evenodd" fill-rule="evenodd" stroke-linejoin="round" stroke-miterlimit="2" viewBox="0 0 372 94" xmlns="http://www.w3.org/2000/svg"><g transform="matrix(.790626 0 0 .629847 -272.9546 -1.4278)"><path d="m345.239 2.267h469.254v148.812h-469.254z" fill="none"/><path d="m352.664 502.415c30.222 0 54.76 24.537 54.76 54.76s-24.538 54.76-54.76 54.76c-30.223 0-54.76-24.537-54.76-54.76s24.537-54.76 54.76-54.76zm-16.225 54.76c.118-15.427-9.899-19.817-12.323-21.22-1.158-.671-1.604-.246-.991.944 0 0 6.162 10.184 6.162 20.276 0 10.091-6.162 20.275-6.162 20.276-.613 1.189-.167 1.614.991.943 2.424-1.402 12.441-5.793 12.323-21.219zm16.833-23.681c-10.092 0-20.276-5.249-20.276-5.249-1.19-.613-1.614-.167-.944.991 0 0 7.196 12.43 21.22 12.322 14.024.108 21.22-12.322 21.22-12.322.671-1.158.246-1.604-.944-.991 0 0-10.184 5.249-20.276 5.249zm23.681 23.681c0-10.092 5.249-20.276 5.249-20.276.613-1.19.167-1.615-.991-.944 0 0-12.43 7.196-12.323 21.22-.107 14.023 12.323 21.22 12.323 21.22 1.158.67 1.604.246.991-.944 0 0-5.249-10.184-5.249-20.276zm-23.681 23.68c10.092 0 20.276 5.25 20.276 5.25 1.19.613 1.615.167.944-.991 0 0-7.196-12.43-21.22-12.323-14.024-.107-21.22 12.323-21.22 12.323-.67 1.158-.246 1.604.944.991 0 0 10.184-5.25 20.276-5.25z" transform="matrix(1.03939 0 0 1.30471 38.9473 -649.798)"/><g fill-rule="nonzero" transform="matrix(1.26482 0 0 1.58769 -128.623 -621.033)"><path d="m507.797 460.999c-6.912 0-12.203-1.867-15.872-5.6s-5.504-8.821-5.504-15.264c0-6.827 1.781-12.139 5.344-15.936s8.885-5.696 15.968-5.696c2.475 0 4.704.181 6.688.544s3.851.864 5.6 1.504v7.552c-3.627-1.493-7.509-2.24-11.648-2.24-4.693 0-8.064 1.173-10.112 3.52s-3.072 5.931-3.072 10.752c0 9.045 4.437 13.568 13.312 13.568 2.005 0 3.989-.181 5.952-.544s3.84-.907 5.632-1.632v7.616c-1.749.555-3.616 1.003-5.6 1.344s-4.213.512-6.688.512z"/><path d="m543.573 460.999c-13.355 0-20.032-7.019-20.032-21.056 0-7.552 1.685-13.013 5.056-16.384s8.363-5.056 14.976-5.056 11.605 1.685 14.976 5.056 5.056 8.832 5.056 16.384c0 14.037-6.677 21.056-20.032 21.056zm0-7.36c3.883 0 6.731-1.12 8.544-3.36s2.72-5.685 2.72-10.336c0-5.163-.907-8.8-2.72-10.912s-4.661-3.168-8.544-3.168-6.731 1.056-8.544 3.168-2.72 5.749-2.72 10.912c0 4.651.907 8.096 2.72 10.336s4.661 3.36 8.544 3.36z"/><path d="m576.469 450.119c-1.493 0-2.859-.363-4.096-1.088s-2.219-1.696-2.944-2.912-1.088-2.592-1.088-4.128.363-2.923 1.088-4.16 1.707-2.219 2.944-2.944 2.603-1.088 4.096-1.088c1.536 0 2.923.363 4.16 1.088s2.219 1.707 2.944 2.944 1.088 2.624 1.088 4.16-.363 2.912-1.088 4.128-1.707 2.187-2.944 2.912-2.624 1.088-4.16 1.088z"/><path d="m590.741 460.359v-41.216h8.64v34.56h20.288v6.656z"/><path d="m623.125 460.359 15.744-41.216h9.472l15.68 41.216h-8.96l-3.904-9.92h-15.168l-3.84 9.92zm14.144-16.576h12.608l-6.336-16.576z"/><path d="m670.037 460.359v-41.216h20.864c4.139 0 7.221.971 9.248 2.912s3.04 4.683 3.04 8.224c0 2.219-.427 4.064-1.28 5.536s-2.005 2.613-3.456 3.424c1.92.597 3.445 1.589 4.576 2.976s1.696 3.424 1.696 6.112c0 3.968-1.12 6.965-3.36 8.992s-5.472 3.04-9.696 3.04zm8.64-24.128h10.624c2.091 0 3.584-.459 4.48-1.376s1.344-2.208 1.344-3.872c0-1.835-.459-3.2-1.376-4.096s-2.613-1.344-5.088-1.344h-9.984zm0 17.792h10.944c2.176 0 3.776-.448 4.8-1.344s1.536-2.475 1.536-4.736c0-1.835-.501-3.2-1.504-4.096s-2.805-1.344-5.408-1.344h-10.368z"/><path d="m723.541 460.999c-2.645 0-5.109-.192-7.392-.576s-4.256-.939-5.92-1.664v-7.616c1.877.768 3.904 1.387 6.08 1.856s4.309.704 6.4.704c2.987 0 5.184-.277 6.592-.832s2.112-1.813 2.112-3.776c0-1.237-.299-2.219-.896-2.944s-1.632-1.376-3.104-1.952-3.552-1.227-6.24-1.952c-4.309-1.195-7.339-2.688-9.088-4.48s-2.624-4.267-2.624-7.424c0-3.797 1.387-6.72 4.16-8.768s6.805-3.072 12.096-3.072c2.475 0 4.779.171 6.912.512s3.861.747 5.184 1.216v7.616c-3.499-1.323-7.147-1.984-10.944-1.984-2.688 0-4.8.288-6.336.864s-2.304 1.781-2.304 3.616c0 1.067.277 1.92.832 2.56s1.504 1.216 2.848 1.728 3.232 1.088 5.664 1.728c3.371.896 5.973 1.963 7.808 3.2s3.104 2.645 3.808 4.224 1.056 3.349 1.056 5.312c0 3.584-1.365 6.464-4.096 8.64s-6.933 3.264-12.608 3.264z"/></g></g></svg>