<svg clip-rule="evenodd" fill-rule="evenodd" stroke-linejoin="round" stroke-miterlimit="2" viewBox="0 0 372 94" xmlns="http://www.w3.org/2000/svg"><g fill="#fff"><path d="m47.646 2.167c24.836 0 45 20.164 45 45 0 24.837-20.164 45-45 45s-45-20.163-45-45c0-24.836 20.164-45 45-45zm-13.333 45c.097-12.677-8.133-16.285-10.126-17.437-.952-.551-1.319-.202-.815.776 0 0 5.064 8.369 5.064 16.662s-5.064 16.662-5.064 16.662c-.504.978-.137 1.327.815.775 1.992-1.152 10.223-4.76 10.126-17.437zm13.833-19.46c-8.293 0-16.662-4.313-16.662-4.313-.978-.504-1.326-.138-.776.814 0 0 5.914 10.214 17.438 10.126 11.525.088 17.438-10.126 17.438-10.126.551-.952.202-1.318-.776-.814 0 0-8.369 4.313-16.662 4.313zm19.46 19.46c0-8.293 4.314-16.662 4.314-16.662.504-.978.137-1.327-.815-.776 0 0-10.214 5.914-10.126 17.438-.088 11.524 10.126 17.438 10.126 17.438.952.55 1.319.202.815-.776 0 0-4.314-8.368-4.314-16.662zm-19.46 19.46c8.293 0 16.662 4.314 16.662 4.314.978.504 1.327.137.776-.814 0 0-5.913-10.215-17.438-10.127-11.524-.088-17.438 10.127-17.438 10.127-.55.951-.202 1.318.776.814 0 0 8.369-4.314 16.662-4.314z"/><path d="m507.797 460.999c-6.912 0-12.203-1.867-15.872-5.6s-5.504-8.821-5.504-15.264c0-6.827 1.781-12.139 5.344-15.936s8.885-5.696 15.968-5.696c2.475 0 4.704.181 6.688.544s3.851.864 5.6 1.504v7.552c-3.627-1.493-7.509-2.24-11.648-2.24-4.693 0-8.064 1.173-10.112 3.52s-3.072 5.931-3.072 10.752c0 9.045 4.437 13.568 13.312 13.568 2.005 0 3.989-.181 5.952-.544a29.066 29.066 0 0 0 5.632-1.632v7.616a42.073 42.073 0 0 1 -5.6 1.344c-1.984.341-4.213.512-6.688.512zm35.776 0c-13.355 0-20.032-7.019-20.032-21.056 0-7.552 1.685-13.013 5.056-16.384s8.363-5.056 14.976-5.056 11.605 1.685 14.976 5.056 5.056 8.832 5.056 16.384c0 14.037-6.677 21.056-20.032 21.056zm0-7.36c3.883 0 6.731-1.12 8.544-3.36s2.72-5.685 2.72-10.336c0-5.163-.907-8.8-2.72-10.912s-4.661-3.168-8.544-3.168-6.731 1.056-8.544 3.168-2.72 5.749-2.72 10.912c0 4.651.907 8.096 2.72 10.336s4.661 3.36 8.544 3.36zm32.896-3.52c-1.493 0-2.859-.363-4.096-1.088a8.193 8.193 0 0 1 -2.944-2.912c-.725-1.216-1.088-2.592-1.088-4.128s.363-2.923 1.088-4.16a8.116 8.116 0 0 1 2.944-2.944c1.237-.725 2.603-1.088 4.096-1.088 1.536 0 2.923.363 4.16 1.088a8.116 8.116 0 0 1 2.944 2.944c.725 1.237 1.088 2.624 1.088 4.16s-.363 2.912-1.088 4.128a8.193 8.193 0 0 1 -2.944 2.912c-1.237.725-2.624 1.088-4.16 1.088zm14.272 10.24v-41.216h8.64v34.56h20.288v6.656zm32.384 0 15.744-41.216h9.472l15.68 41.216h-8.96l-3.904-9.92h-15.168l-3.84 9.92zm14.144-16.576h12.608l-6.336-16.576zm32.768 16.576v-41.216h20.864c4.139 0 7.221.971 9.248 2.912s3.04 4.683 3.04 8.224c0 2.219-.427 4.064-1.28 5.536s-2.005 2.613-3.456 3.424c1.92.597 3.445 1.589 4.576 2.976s1.696 3.424 1.696 6.112c0 3.968-1.12 6.965-3.36 8.992s-5.472 3.04-9.696 3.04zm8.64-24.128h10.624c2.091 0 3.584-.459 4.48-1.376s1.344-2.208 1.344-3.872c0-1.835-.459-3.2-1.376-4.096s-2.613-1.344-5.088-1.344h-9.984zm0 17.792h10.944c2.176 0 3.776-.448 4.8-1.344s1.536-2.475 1.536-4.736c0-1.835-.501-3.2-1.504-4.096s-2.805-1.344-5.408-1.344h-10.368zm44.864 6.976c-2.645 0-5.109-.192-7.392-.576s-4.256-.939-5.92-1.664v-7.616a36.138 36.138 0 0 0 6.08 1.856c2.176.469 4.309.704 6.4.704 2.987 0 5.184-.277 6.592-.832s2.112-1.813 2.112-3.776c0-1.237-.299-2.219-.896-2.944s-1.632-1.376-3.104-1.952-3.552-1.227-6.24-1.952c-4.309-1.195-7.339-2.688-9.088-4.48s-2.624-4.267-2.624-7.424c0-3.797 1.387-6.72 4.16-8.768s6.805-3.072 12.096-3.072c2.475 0 4.779.171 6.912.512s3.861.747 5.184 1.216v7.616a30.687 30.687 0 0 0 -10.944-1.984c-2.688 0-4.8.288-6.336.864s-2.304 1.781-2.304 3.616c0 1.067.277 1.92.832 2.56s1.504 1.216 2.848 1.728 3.232 1.088 5.664 1.728c3.371.896 5.973 1.963 7.808 3.2s3.104 2.645 3.808 4.224 1.056 3.349 1.056 5.312c0 3.584-1.365 6.464-4.096 8.64s-6.933 3.264-12.608 3.264z" fill-rule="nonzero" transform="translate(-374.647 -392.584)"/></g></svg>