<svg clip-rule="evenodd" fill-rule="evenodd" stroke-linejoin="round" stroke-miterlimit="2" viewBox="0 0 97 95" xmlns="http://www.w3.org/2000/svg"><g transform="matrix(.493771 0 0 .626595 -568.049 -5.64304)"><path d="m1150.43 9.006h195.943v150.736h-195.943z" fill="none"/><path d="m352.664 502.415c30.222 0 54.76 24.537 54.76 54.76s-24.538 54.76-54.76 54.76c-30.223 0-54.76-24.537-54.76-54.76s24.537-54.76 54.76-54.76zm-16.225 54.76c.118-15.427-9.899-19.817-12.323-21.22-1.158-.671-1.604-.246-.991.944 0 0 6.162 10.184 6.162 20.276 0 10.091-6.162 20.275-6.162 20.276-.613 1.189-.167 1.614.991.943 2.424-1.402 12.441-5.793 12.323-21.219zm16.833-23.681c-10.092 0-20.276-5.249-20.276-5.249-1.19-.613-1.614-.167-.944.991 0 0 7.196 12.43 21.22 12.322 14.024.108 21.22-12.322 21.22-12.322.671-1.158.246-1.604-.944-.991 0 0-10.184 5.249-20.276 5.249zm23.681 23.681c0-10.092 5.249-20.276 5.249-20.276.613-1.19.167-1.615-.991-.944 0 0-12.43 7.196-12.323 21.22-.107 14.023 12.323 21.22 12.323 21.22 1.158.67 1.604.246.991-.944 0 0-5.249-10.184-5.249-20.276zm-23.681 23.68c10.092 0 20.276 5.25 20.276 5.25 1.19.613 1.615.167.944-.991 0 0-7.196-12.43-21.22-12.323-14.024-.107-21.22 12.323-21.22 12.323-.67 1.158-.246 1.604.944.991 0 0 10.184-5.25 20.276-5.25z" transform="matrix(1.66427 0 0 1.31148 661.887 -646.459)"/></g></svg>