<?xml version="1.0" encoding="UTF-8" standalone="no"?>
<!DOCTYPE svg PUBLIC "-//W3C//DTD SVG 1.1//EN" "http://www.w3.org/Graphics/SVG/1.1/DTD/svg11.dtd">
<svg width="100%" height="100%" viewBox="0 0 1007 1005" version="1.1" xmlns="http://www.w3.org/2000/svg" xmlns:xlink="http://www.w3.org/1999/xlink" xml:space="preserve" xmlns:serif="http://www.serif.com/" style="fill-rule:evenodd;clip-rule:evenodd;stroke-linejoin:round;stroke-miterlimit:2;">
    <g transform="matrix(1,0,0,1,-2395.27,-2948)">
        <g transform="matrix(2.85601,0,0,2.85601,2741.57,3891.34)">
            <path d="M0,-307.021C0,-307.021 -0.122,-304.426 -0.161,-303.699C-1.233,-285.539 -15.944,-271.059 -34.218,-270.409C-34.618,-270.375 -34.992,-270.375 -35.386,-270.375C-35.779,-270.375 -36.154,-270.375 -36.554,-270.409C-54.828,-271.059 -69.539,-285.539 -70.611,-303.699C-70.65,-304.426 -70.782,-307.034 -70.782,-307.034C-71.816,-319.598 -82.218,-329.251 -95.052,-329.251C-111.148,-329.251 -123.643,-313.639 -118.198,-296.682C-115.019,-286.785 -105.447,-280.33 -95.052,-280.33C-76.243,-280.216 -60.881,-265.39 -59.923,-246.811L-59.654,-244.192C-58.147,-231.404 -48.507,-221.526 -35.52,-221.526L-35.251,-221.526C-22.264,-221.526 -12.881,-230.783 -11.082,-244.153L-10.849,-246.811C-9.891,-265.39 5.471,-280.216 24.28,-280.33C24.969,-280.33 25.654,-280.362 26.334,-280.418C26.744,-280.398 27.111,-280.38 27.32,-280.369C45.479,-279.298 59.959,-264.587 60.609,-246.312C60.644,-245.912 60.644,-245.538 60.644,-245.144C60.644,-244.751 60.644,-244.376 60.609,-243.976C59.959,-225.702 45.479,-210.991 27.32,-209.92C26.593,-209.88 23.984,-209.749 23.984,-209.749C18.389,-209.288 13.378,-206.961 9.533,-203.397C3.806,-199.393 -0.097,-192.999 -0.709,-185.573C-0.709,-185.573 -0.831,-182.978 -0.87,-182.251C-1.942,-164.091 -16.653,-149.612 -34.927,-148.961C-35.327,-148.927 -35.701,-148.927 -36.095,-148.927C-36.488,-148.927 -36.863,-148.927 -37.263,-148.961C-55.537,-149.612 -70.248,-164.091 -71.32,-182.251C-71.359,-182.978 -71.49,-185.586 -71.49,-185.586C-72.525,-198.15 -82.927,-207.803 -95.761,-207.803C-111.857,-207.803 -124.352,-192.191 -118.906,-175.234C-115.728,-165.337 -106.156,-158.882 -95.761,-158.882C-76.952,-158.768 -61.59,-143.942 -60.632,-125.362L-60.623,-125.275C-60.662,-124.71 -60.689,-124.143 -60.689,-123.572C-60.802,-104.764 -75.629,-89.402 -94.209,-88.444L-96.826,-88.175C-109.615,-86.667 -119.493,-77.028 -119.493,-64.041L-119.493,-63.772C-119.493,-50.785 -110.236,-41.402 -96.865,-39.602L-94.209,-39.369C-75.629,-38.411 -60.802,-23.049 -60.689,-4.24C-60.689,6.155 -54.234,15.727 -44.337,18.905C-27.38,24.351 -11.768,11.856 -11.768,-4.24C-11.768,-17.074 -21.434,-27.486 -33.998,-28.52C-33.998,-28.52 -36.593,-28.643 -37.32,-28.682C-55.48,-29.753 -69.959,-44.464 -70.609,-62.739C-70.644,-63.139 -70.644,-63.513 -70.644,-63.907C-70.644,-64.3 -70.644,-64.674 -70.609,-65.074C-69.959,-83.349 -55.48,-98.06 -37.32,-99.131C-36.593,-99.17 -33.985,-99.302 -33.985,-99.302C-21.755,-100.309 -12.31,-110.201 -11.815,-122.563C-11.809,-122.611 -11.797,-122.657 -11.791,-122.705L-11.558,-125.362C-10.6,-143.942 4.763,-158.768 23.571,-158.882C24.023,-158.882 24.472,-158.91 24.92,-158.934C25.369,-158.91 25.817,-158.882 26.269,-158.882C45.078,-158.768 60.44,-143.942 61.399,-125.362L61.421,-125.142C61.388,-124.621 61.36,-124.099 61.36,-123.572C61.247,-104.764 46.421,-89.402 27.841,-88.444L25.223,-88.175C12.435,-86.667 2.557,-77.028 2.557,-64.041L2.557,-63.772C2.557,-50.785 11.814,-41.402 25.184,-39.602L27.841,-39.369C46.421,-38.411 61.247,-23.049 61.361,-4.24C61.361,6.155 67.816,15.727 77.713,18.905C80.523,19.808 83.294,20.208 85.965,20.19C86.077,20.191 86.186,20.2 86.298,20.2C86.491,20.2 86.677,20.178 86.869,20.173C86.961,20.17 87.053,20.165 87.145,20.16C99.584,19.743 109.567,10.254 110.579,-2.03C110.579,-2.03 110.701,-4.625 110.74,-5.352C111.811,-23.511 126.522,-37.991 144.796,-38.641C145.197,-38.676 145.571,-38.676 145.965,-38.676C146.358,-38.676 146.733,-38.676 147.133,-38.641C165.407,-37.991 180.118,-23.511 181.189,-5.352C181.228,-4.625 181.36,-2.016 181.36,-2.016C182.395,10.547 192.797,20.2 205.631,20.2C221.727,20.2 234.222,4.588 228.776,-12.369C225.598,-22.266 216.026,-28.721 205.631,-28.721C186.822,-28.834 171.46,-43.661 170.502,-62.24L170.233,-64.858C168.725,-77.647 159.086,-87.524 146.099,-87.524L145.83,-87.524C132.843,-87.524 123.459,-78.268 121.66,-64.898L121.427,-62.24C120.469,-43.661 105.107,-28.834 86.298,-28.721C85.853,-28.721 85.412,-28.693 84.971,-28.669C84.884,-28.674 84.792,-28.678 84.73,-28.682C66.57,-29.753 52.09,-44.464 51.44,-62.739C51.405,-63.139 51.405,-63.513 51.405,-63.907C51.405,-64.3 51.405,-64.674 51.44,-65.075C52.09,-83.349 66.57,-98.06 84.73,-99.131C85.456,-99.17 88.065,-99.302 88.065,-99.302C100.349,-100.313 109.825,-110.287 110.242,-122.727L110.473,-125.362C111.431,-143.942 126.793,-158.768 145.602,-158.882C145.749,-158.882 145.895,-158.896 146.042,-158.899L146.503,-158.858C165.083,-157.901 179.91,-142.538 180.023,-123.73C180.023,-113.335 186.478,-103.763 196.375,-100.584C213.332,-95.138 228.944,-107.633 228.944,-123.73C228.944,-136.563 219.278,-146.975 206.714,-148.01C206.714,-148.01 204.119,-148.132 203.392,-148.171C185.232,-149.243 170.753,-163.954 170.102,-182.228C170.098,-182.275 170.101,-182.319 170.098,-182.366C170.114,-182.727 170.14,-183.086 170.14,-183.449C170.254,-202.258 185.08,-217.62 203.66,-218.578L204.764,-218.692C205.707,-218.74 206.727,-218.791 206.727,-218.791C216.7,-219.613 224.819,-226.346 227.751,-235.503C227.82,-235.714 227.902,-235.917 227.966,-236.131C227.984,-236.196 227.996,-236.263 228.014,-236.328C228.613,-238.421 228.944,-240.644 228.944,-242.981L228.944,-243.25C228.944,-243.382 228.928,-243.508 228.926,-243.64C228.917,-244.045 228.901,-244.45 228.872,-244.851C228.464,-251.6 225.507,-257.28 220.751,-261.292C216.777,-264.835 211.642,-267.103 205.981,-267.449L203.66,-267.652C185.08,-268.61 170.253,-283.973 170.14,-302.782C170.14,-313.177 163.685,-322.748 153.788,-325.926C136.831,-331.372 121.219,-318.877 121.219,-302.782C121.219,-289.947 130.885,-279.536 143.449,-278.501C143.449,-278.501 146.044,-278.379 146.771,-278.34C164.931,-277.269 179.411,-262.558 180.061,-244.283C180.065,-244.236 180.062,-244.192 180.065,-244.146C180.049,-243.784 180.023,-243.425 180.023,-243.062C179.91,-224.253 165.083,-208.891 146.503,-207.933L145.399,-207.82C144.457,-207.772 143.436,-207.72 143.436,-207.72C134.719,-207.002 127.412,-201.77 123.749,-194.35C123.743,-194.338 123.738,-194.325 123.732,-194.313C123.412,-193.662 123.119,-192.995 122.856,-192.312C122.829,-192.241 122.809,-192.166 122.782,-192.095C122.649,-191.737 122.529,-191.373 122.412,-191.008C122.343,-190.797 122.261,-190.593 122.198,-190.38C122.179,-190.315 122.167,-190.247 122.149,-190.183C122.147,-190.174 122.145,-190.166 122.143,-190.158C122.132,-190.117 122.124,-190.075 122.113,-190.035C121.54,-187.985 121.219,-185.813 121.219,-183.53L121.219,-183.434C121.196,-182.944 121.173,-182.492 121.16,-182.251C120.089,-164.091 105.378,-149.612 87.104,-148.961C86.704,-148.927 86.329,-148.927 85.936,-148.927C85.542,-148.927 85.168,-148.927 84.767,-148.961C66.493,-149.612 51.782,-164.091 50.711,-182.251C50.694,-182.564 50.66,-183.227 50.627,-183.881C50.661,-184.411 50.689,-184.943 50.689,-185.478C50.802,-204.287 65.628,-219.649 84.208,-220.607L86.826,-220.876C99.615,-222.384 109.492,-232.023 109.492,-245.01L109.492,-245.279C109.492,-258.266 100.235,-267.649 86.865,-269.449L84.208,-269.681C65.628,-270.639 50.802,-286.002 50.689,-304.811C50.689,-315.206 44.233,-324.777 34.336,-327.956C31.206,-328.961 28.122,-329.352 25.173,-329.224C24.876,-329.234 24.58,-329.251 24.28,-329.251C11.447,-329.251 1.035,-319.585 0,-307.021" style="fill:none;fill-rule:nonzero;stroke:rgb(184,220,204);stroke-opacity:0.22;stroke-width:2.1px;"/>
        </g>
    </g>
</svg>
