<svg clip-rule="evenodd" fill-rule="evenodd" stroke-linejoin="round" stroke-miterlimit="2" viewBox="0 0 1001 999" xmlns="http://www.w3.org/2000/svg"><path d="m0-307.021s-.122 2.595-.161 3.322c-1.072 18.16-15.783 32.64-34.057 33.29-.4.034-.774.034-1.168.034-.393 0-.768 0-1.168-.034-18.274-.65-32.985-15.13-34.057-33.29-.039-.727-.171-3.335-.171-3.335-1.034-12.564-11.436-22.217-24.27-22.217-16.096 0-28.591 15.612-23.146 32.569 3.179 9.897 12.751 16.352 23.146 16.352 18.809.114 34.171 14.94 35.129 33.519l.269 2.619c1.507 12.788 11.147 22.666 24.134 22.666h.269c12.987 0 22.37-9.257 24.169-22.627l.233-2.658c.958-18.579 16.32-33.405 35.129-33.519.689 0 1.374-.032 2.054-.088l.986.049c18.159 1.071 32.639 15.782 33.289 34.057.035.4.035.774.035 1.168 0 .393 0 .768-.035 1.168-.65 18.274-15.13 32.985-33.289 34.056-.727.04-3.336.171-3.336.171a24.09 24.09 0 0 0 -14.451 6.352c-5.727 4.004-9.63 10.398-10.242 17.824 0 0-.122 2.595-.161 3.322-1.072 18.16-15.783 32.639-34.057 33.29-.4.034-.774.034-1.168.034-.393 0-.768 0-1.168-.034-18.274-.651-32.985-15.13-34.057-33.29-.039-.727-.17-3.335-.17-3.335-1.035-12.564-11.437-22.217-24.271-22.217-16.096 0-28.591 15.612-23.145 32.569 3.178 9.897 12.75 16.352 23.145 16.352 18.809.114 34.171 14.94 35.129 33.52l.009.087a24.704 24.704 0 0 0 -.066 1.703c-.113 18.808-14.94 34.17-33.52 35.128l-2.617.269c-12.789 1.508-22.667 11.147-22.667 24.134v.269c0 12.987 9.257 22.37 22.628 24.17l2.656.233c18.58.958 33.407 16.32 33.52 35.129 0 10.395 6.455 19.967 16.352 23.145 16.957 5.446 32.569-7.049 32.569-23.145 0-12.834-9.666-23.246-22.23-24.28 0 0-2.595-.123-3.322-.162-18.16-1.071-32.639-15.782-33.289-34.057-.035-.4-.035-.774-.035-1.168 0-.393 0-.767.035-1.167.65-18.275 15.129-32.986 33.289-34.057.727-.039 3.335-.171 3.335-.171 12.23-1.007 21.675-10.899 22.17-23.261.006-.048.018-.094.024-.142l.233-2.657c.958-18.58 16.321-33.406 35.129-33.52.452 0 .901-.028 1.349-.052.449.024.897.052 1.349.052 18.809.114 34.171 14.94 35.13 33.52l.022.22a24.785 24.785 0 0 0 -.061 1.57c-.113 18.808-14.939 34.17-33.519 35.128l-2.618.269c-12.788 1.508-22.666 11.147-22.666 24.134v.269c0 12.987 9.257 22.37 22.627 24.17l2.657.233c18.58.958 33.406 16.32 33.52 35.129 0 10.395 6.455 19.967 16.352 23.145a26.313 26.313 0 0 0 8.252 1.285c.112.001.221.01.333.01.193 0 .379-.022.571-.027.092-.003.184-.008.276-.013 12.439-.417 22.422-9.906 23.434-22.19 0 0 .122-2.595.161-3.322 1.071-18.159 15.782-32.639 34.056-33.289.401-.035.775-.035 1.169-.035.393 0 .768 0 1.168.035 18.274.65 32.985 15.13 34.056 33.289.039.727.171 3.336.171 3.336 1.035 12.563 11.437 22.216 24.271 22.216 16.096 0 28.591-15.612 23.145-32.569-3.178-9.897-12.75-16.352-23.145-16.352-18.809-.113-34.171-14.94-35.129-33.519l-.269-2.618c-1.508-12.789-11.147-22.666-24.134-22.666h-.269c-12.987 0-22.371 9.256-24.17 22.626l-.233 2.658c-.958 18.579-16.32 33.406-35.129 33.519-.445 0-.886.028-1.327.052l-.241-.013c-18.16-1.071-32.64-15.782-33.29-34.057-.035-.4-.035-.774-.035-1.168 0-.393 0-.767.035-1.168.65-18.274 15.13-32.985 33.29-34.056.726-.039 3.335-.171 3.335-.171 12.284-1.011 21.76-10.985 22.177-23.425l.231-2.635c.958-18.58 16.32-33.406 35.129-33.52.147 0 .293-.014.44-.017l.461.041c18.58.957 33.407 16.32 33.52 35.128 0 10.395 6.455 19.967 16.352 23.146 16.957 5.446 32.569-7.049 32.569-23.146 0-12.833-9.666-23.245-22.23-24.28 0 0-2.595-.122-3.322-.161-18.16-1.072-32.639-15.783-33.29-34.057-.004-.047-.001-.091-.004-.138.016-.361.042-.72.042-1.083.114-18.809 14.94-34.171 33.52-35.129l1.104-.114 1.963-.099c9.973-.822 18.092-7.555 21.024-16.712.069-.211.151-.414.215-.628.018-.065.03-.132.048-.197a24.1 24.1 0 0 0 .93-6.653v-.269c0-.132-.016-.258-.018-.39-.009-.405-.025-.81-.054-1.211-.408-6.749-3.365-12.429-8.121-16.441a24.38 24.38 0 0 0 -14.77-6.157l-2.321-.203c-18.58-.958-33.407-16.321-33.52-35.13 0-10.395-6.455-19.966-16.352-23.144-16.957-5.446-32.569 7.049-32.569 23.144 0 12.835 9.666 23.246 22.23 24.281 0 0 2.595.122 3.322.161 18.16 1.071 32.64 15.782 33.29 34.057.004.047.001.091.004.137-.016.362-.042.721-.042 1.084-.113 18.809-14.94 34.171-33.52 35.129l-1.104.113-1.963.1a24.086 24.086 0 0 0 -19.687 13.37l-.017.037c-.32.651-.613 1.318-.876 2.001-.027.071-.047.146-.074.217-.133.358-.253.722-.37 1.087-.069.211-.151.415-.214.628-.019.065-.031.133-.049.197l-.006.025c-.011.041-.019.083-.03.123a24.082 24.082 0 0 0 -.894 6.505v.096c-.023.49-.046.942-.059 1.183-1.071 18.16-15.782 32.639-34.056 33.29-.4.034-.775.034-1.168.034-.394 0-.768 0-1.169-.034-18.274-.651-32.985-15.13-34.056-33.29l-.084-1.63c.034-.53.062-1.062.062-1.597.113-18.809 14.939-34.171 33.519-35.129l2.618-.269c12.789-1.508 22.666-11.147 22.666-24.134v-.269c0-12.987-9.257-22.37-22.627-24.17l-2.657-.232c-18.58-.958-33.406-16.321-33.519-35.13 0-10.395-6.456-19.966-16.353-23.145-3.13-1.005-6.214-1.396-9.163-1.268-.297-.01-.593-.027-.893-.027-12.833 0-23.245 9.666-24.28 22.23" fill="#b8dccc" fill-opacity=".49" fill-rule="nonzero" transform="matrix(2.85601 0 0 2.85601 343.3 940.34)"/></svg>