<svg clip-rule="evenodd" fill-rule="evenodd" stroke-linejoin="round" stroke-miterlimit="2" viewBox="0 0 581 126" xmlns="http://www.w3.org/2000/svg" xmlns:xlink="http://www.w3.org/1999/xlink"><clipPath id="a"><path clip-rule="evenodd" d="m0 0h1280v2080h-1280z"/></clipPath><clipPath id="b"><path clip-rule="evenodd" d="m0 0h290.03v62.93h-290.03z"/></clipPath><g transform="scale(.453203 .0605288)"><path d="m0 0h1280v2080h-1280z" fill="none"/><g clip-path="url(#a)"><g clip-path="url(#b)" fill="#fff" transform="matrix(4.41334 0 0 33.0421 -.0005001 .0003235)"><path d="m80.56 31.5c0-10.22 8.19-18.32 18.41-18.32 4.76 0 9.1 1.71 12.39 4.54l-4.83 5.61c-1.75-1.63-4.34-2.56-7.42-2.56-6.09 0-10.64 4.47-10.64 10.72s4.2 10.65 10.85 10.65c3.22 0 6.44-1.14 8.47-3.05l4.27 5.96c-3.36 2.91-8.05 4.69-13.09 4.69-10.22 0-18.41-8.02-18.41-18.25" fill-rule="nonzero"/><path d="m116.27 31.5c0-10.22 8.19-18.32 18.41-18.32s18.41 8.09 18.41 18.32-8.19 18.25-18.41 18.25-18.41-8.09-18.41-18.25m28.9 0c0-6.18-4.55-10.72-10.5-10.72s-10.5 4.54-10.5 10.72 4.55 10.65 10.5 10.65 10.5-4.54 10.5-10.65" fill-rule="nonzero"/><path d="m161.09 2.32h7.77v46.72h-7.77z"/><g fill-rule="nonzero"><path d="m176.5 31.5c0-10.15 6.51-18.32 16.03-18.32 4.69 0 8.82 1.92 11.55 5.18v-4.47h7.77v35.14h-7.77v-4.4c-2.73 3.27-6.86 5.11-11.55 5.11-9.52 0-16.03-8.17-16.03-18.25m27.58.01c0-6.18-4.06-10.72-9.59-10.72-5.88 0-10.08 4.54-10.08 10.72s4.2 10.65 10.08 10.65c5.46 0 9.59-4.4 9.59-10.65"/><path d="m227.59 44.63v4.4h-7.42v-46.71h7.77v16.05c2.73-3.27 6.86-5.18 11.55-5.18 9.52 0 16.03 8.17 16.03 18.32s-6.51 18.25-16.03 18.25c-4.83 0-9.1-1.85-11.9-5.11m20.02-13.15c0-6.18-4.2-10.72-10.08-10.72-5.53 0-9.59 4.54-9.59 10.72s4.13 10.65 9.59 10.65c5.88 0 10.08-4.47 10.08-10.65"/><path d="m261.34 44.63 2.94-6.46c2.24 1.85 5.81 4.19 10.99 4.19 3.15 0 6.86-1.21 6.86-3.69s-3.5-3.19-6.93-4.19c-6.58-1.85-12.18-3.83-12.18-10.72s6.93-10.58 13.02-10.58c5.18 0 8.61 1.35 12.39 3.62l-2.87 6.39c-3.08-1.78-6.02-2.63-9.45-2.63-2.59 0-5.18 1.21-5.18 3.05 0 2.41 2.87 2.98 5.95 3.62 6.44 1.42 13.16 4.05 13.16 11.29 0 8.24-8.33 11.22-14.77 11.22-7.14 0-12.04-3.27-13.93-5.11"/><path d="m44.36 0c-2.79 0-5.08 2.15-5.31 4.88v.21c0 .16 0 .31-.02.47-.23 3.95-3.43 7.1-7.41 7.24h-.5c-3.97-.14-7.17-3.29-7.41-7.24 0-.16-.02-.31-.02-.47v-.21c-.23-2.73-2.52-4.88-5.31-4.88-3.64 0-6.44 3.68-4.87 7.53.78 1.92 2.74 3.1 4.82 3.1h.05c4.09.02 7.43 3.25 7.64 7.29v.49c.16 2.79 2.47 5 5.3 5h.06c2.82 0 5.14-2.21 5.3-5v-.49c.21-4.04 3.55-7.26 7.64-7.29h.05c2.08 0 4.04-1.18 4.82-3.1 1.57-3.86-1.23-7.53-4.87-7.53z" transform="translate(.075)"/><path d="m18.49 62.93c2.79 0 5.08-2.15 5.31-4.88v-.21c0-.16 0-.31.02-.47.23-3.95 3.43-7.1 7.41-7.24h.5c3.97.14 7.17 3.29 7.41 7.24 0 .16.02.31.02.47v.21c.23 2.73 2.52 4.88 5.31 4.88 3.64 0 6.44-3.68 4.87-7.53-.78-1.92-2.74-3.1-4.82-3.1h-.05c-4.09-.02-7.43-3.25-7.64-7.29v-.49c-.16-2.79-2.47-5-5.3-5h-.06c-2.82 0-5.14 2.21-5.3 5v.49c-.21 4.04-3.55 7.26-7.64 7.29h-.05c-2.08 0-4.04 1.18-4.82 3.1-1.57 3.86 1.23 7.53 4.87 7.53z" transform="translate(-.075)"/><path d="m0 18.55c0 2.79 2.15 5.08 4.88 5.31h.21c.16 0 .31 0 .47.02 3.95.23 7.1 3.43 7.24 7.41v.5c-.14 3.97-3.29 7.17-7.24 7.41-.16 0-.31.02-.47.02h-.21c-2.73.23-4.88 2.52-4.88 5.31 0 3.64 3.68 6.44 7.53 4.87 1.92-.78 3.1-2.74 3.1-4.82v-.05c.02-4.09 3.25-7.43 7.29-7.64h.49c2.79-.16 5-2.47 5-5.3v-.06c0-2.82-2.21-5.14-5-5.3h-.49c-4.04-.21-7.26-3.55-7.29-7.64v-.05c0-2.08-1.18-4.04-3.1-4.82-3.86-1.57-7.53 1.23-7.53 4.87z" transform="translate(0 -.035)"/><path d="m62.93 44.5c0-2.79-2.15-5.08-4.88-5.31h-.21c-.16 0-.31 0-.47-.02-3.95-.23-7.1-3.43-7.24-7.41v-.5c.14-3.97 3.29-7.17 7.24-7.41.16 0 .31-.02.47-.02h.21c2.73-.23 4.88-2.52 4.88-5.31 0-3.64-3.68-6.44-7.53-4.87-1.92.78-3.1 2.74-3.1 4.82v.05c-.02 4.09-3.25 7.43-7.29 7.64h-.49c-2.79.16-5 2.47-5 5.3v.06c0 2.82 2.21 5.14 5 5.3h.49c4.04.21 7.26 3.55 7.29 7.64v.05c0 2.08 1.18 4.04 3.1 4.82 3.86 1.57 7.53-1.23 7.53-4.87z" transform="translate(0 .035)"/></g></g></g></g></svg>