<svg clip-rule="evenodd" fill-rule="evenodd" stroke-linejoin="round" stroke-miterlimit="2" viewBox="0 0 63 63" xmlns="http://www.w3.org/2000/svg" xmlns:xlink="http://www.w3.org/1999/xlink"><clipPath id="a"><path clip-rule="evenodd" d="m-480-26h251v232h-251z"/></clipPath><g transform="matrix(.250996 0 0 .271552 120.478 7.06034)"><path d="m-480-26h251v232h-251z" fill="none"/><g clip-path="url(#a)" fill="#fff" fill-rule="nonzero"><path d="m44.36 0c-2.79 0-5.08 2.15-5.31 4.88v.21c0 .16 0 .31-.02.47-.23 3.95-3.43 7.1-7.41 7.24h-.5c-3.97-.14-7.17-3.29-7.41-7.24 0-.16-.02-.31-.02-.47v-.21c-.23-2.73-2.52-4.88-5.31-4.88-3.64 0-6.44 3.68-4.87 7.53.78 1.92 2.74 3.1 4.82 3.1h.05c4.09.02 7.43 3.25 7.64 7.29v.49c.16 2.79 2.47 5 5.3 5h.06c2.82 0 5.14-2.21 5.3-5v-.49c.21-4.04 3.55-7.26 7.64-7.29h.05c2.08 0 4.04-1.18 4.82-3.1 1.57-3.86-1.23-7.53-4.87-7.53z" transform="matrix(3.98856 0 0 3.68664 -479.697578 -25.99344928)"/><path d="m18.49 62.93c2.79 0 5.08-2.15 5.31-4.88v-.21c0-.16 0-.31.02-.47.23-3.95 3.43-7.1 7.41-7.24h.5c3.97.14 7.17 3.29 7.41 7.24 0 .16.02.31.02.47v.21c.23 2.73 2.52 4.88 5.31 4.88 3.64 0 6.44-3.68 4.87-7.53-.78-1.92-2.74-3.1-4.82-3.1h-.05c-4.09-.02-7.43-3.25-7.64-7.29v-.49c-.16-2.79-2.47-5-5.3-5h-.06c-2.82 0-5.14 2.21-5.3 5v.49c-.21 4.04-3.55 7.26-7.64 7.29h-.05c-2.08 0-4.04 1.18-4.82 3.1-1.57 3.86 1.23 7.53 4.87 7.53z" transform="matrix(3.98856 0 0 3.68664 -480.295862 -25.99344928)"/><path d="m0 18.55c0 2.79 2.15 5.08 4.88 5.31h.21c.16 0 .31 0 .47.02 3.95.23 7.1 3.43 7.24 7.41v.5c-.14 3.97-3.29 7.17-7.24 7.41-.16 0-.31.02-.47.02h-.21c-2.73.23-4.88 2.52-4.88 5.31 0 3.64 3.68 6.44 7.53 4.87 1.92-.78 3.1-2.74 3.1-4.82v-.05c.02-4.09 3.25-7.43 7.29-7.64h.49c2.79-.16 5-2.47 5-5.3v-.06c0-2.82-2.21-5.14-5-5.3h-.49c-4.04-.21-7.26-3.55-7.29-7.64v-.05c0-2.08-1.18-4.04-3.1-4.82-3.86-1.57-7.53 1.23-7.53 4.87z" transform="matrix(3.98856 0 0 3.68664 -479.99672 -26.12248168)"/><path d="m62.93 44.5c0-2.79-2.15-5.08-4.88-5.31h-.21c-.16 0-.31 0-.47-.02-3.95-.23-7.1-3.43-7.24-7.41v-.5c.14-3.97 3.29-7.17 7.24-7.41.16 0 .31-.02.47-.02h.21c2.73-.23 4.88-2.52 4.88-5.31 0-3.64-3.68-6.44-7.53-4.87-1.92.78-3.1 2.74-3.1 4.82v.05c-.02 4.09-3.25 7.43-7.29 7.64h-.49c-2.79.16-5 2.47-5 5.3v.06c0 2.82 2.21 5.14 5 5.3h.49c4.04.21 7.26 3.55 7.29 7.64v.05c0 2.08 1.18 4.04 3.1 4.82 3.86 1.57 7.53-1.23 7.53-4.87z" transform="matrix(3.98856 0 0 3.68664 -479.99672 -25.86441688)"/></g></g></svg>