<svg viewBox="0 0 97 95"
    xmlns="http://www.w3.org/2000/svg" xml:space="preserve" style="fill-rule:evenodd;clip-rule:evenodd;stroke-linejoin:round;stroke-miterlimit:2">
    <path style="fill:white" d="M48.58 2.157c24.835 0 45 20.164 45 45s-20.165 45-45 45c-24.837 0-45-20.164-45-45s20.163-45 45-45Zm-13.334 45c.097-12.677-8.134-16.285-10.126-17.438-.952-.551-1.318-.202-.815.776 0 0 5.064 8.369 5.064 16.662 0 8.292-5.064 16.661-5.064 16.662-.503.977-.137 1.326.815.775 1.992-1.152 10.223-4.76 10.126-17.437Zm13.833-19.46c-8.293 0-16.662-4.314-16.662-4.314-.978-.504-1.326-.137-.776.815 0 0 5.914 10.214 17.438 10.125 11.525.09 17.438-10.125 17.438-10.125.552-.952.202-1.319-.776-.815 0 0-8.368 4.314-16.662 4.314Zm19.46 19.46c0-8.293 4.314-16.662 4.314-16.662.504-.978.137-1.327-.814-.776 0 0-10.215 5.913-10.127 17.438C61.824 58.68 72.04 64.595 72.04 64.595c.951.55 1.318.202.814-.776 0 0-4.313-8.369-4.313-16.662Zm-19.46 19.46c8.294 0 16.662 4.314 16.662 4.314.978.503 1.328.137.776-.815 0 0-5.913-10.214-17.438-10.126-11.524-.088-17.438 10.126-17.438 10.126-.55.952-.202 1.318.776.815 0 0 8.369-4.315 16.662-4.315Z"/>
</svg>
